<svg width="80" height="80" viewBox="0 0 80 80" fill="none" xmlns="http://www.w3.org/2000/svg">
<path d="M43.75 51.5625H36.25C34.9516 51.5667 33.6905 51.9971 32.6603 52.7874C31.6302 53.5778 30.8879 54.6845 30.5476 55.9375H26.9524C26.6121 54.6845 25.8698 53.5778 24.8397 52.7874C23.8095 51.9971 22.5484 51.5667 21.25 51.5625H13.75C11.513 51.5651 9.36847 52.4549 7.78671 54.0367C6.20494 55.6185 5.31515 57.763 5.3125 60V62.5C5.31515 64.737 6.20494 66.8815 7.78671 68.4633C9.36847 70.0451 11.513 70.9349 13.75 70.9375C17.257 70.9324 20.6233 69.5572 23.1307 67.1052C25.6381 64.6532 27.0883 61.3186 27.1717 57.8125H30.3283C30.4117 61.3186 31.8619 64.6532 34.3693 67.1052C36.8767 69.5572 40.243 70.9324 43.75 70.9375C45.9869 70.9349 48.1315 70.0451 49.7133 68.4633C51.2951 66.8815 52.1849 64.737 52.1875 62.5V60C52.1849 57.763 51.2951 55.6185 49.7133 54.0367C48.1315 52.4549 45.9869 51.5651 43.75 51.5625Z" fill="#4D2A7C"/>
<path d="M62.1875 27.1875C62.1875 26.9389 62.0887 26.7004 61.9129 26.5246C61.7371 26.3488 61.4986 26.25 61.25 26.25H18.75C18.5014 26.25 18.2629 26.3488 18.0871 26.5246C17.9113 26.7004 17.8125 26.9389 17.8125 27.1875V30.3125H62.1875V27.1875Z" fill="#4D2A7C"/>
<path d="M40 5.3125C34.8912 5.32045 29.9854 7.31306 26.318 10.8697C22.6506 14.4264 20.5086 19.2689 20.3441 24.375H59.6559C59.4914 19.2689 57.3494 14.4264 53.682 10.8697C50.0146 7.31306 45.1088 5.32045 40 5.3125Z" fill="#4D2A7C"/>
<path d="M75.52 51.72L68.1593 46.8125C68.3429 47.7421 68.4361 48.6874 68.4375 49.635V53.935C68.9753 54.1526 69.4208 54.5504 69.6974 55.0604C69.9741 55.5703 70.0648 56.1606 69.954 56.7301C69.8431 57.2996 69.5377 57.8128 69.09 58.1818C68.6423 58.5508 68.0802 58.7526 67.5 58.7526C66.9198 58.7526 66.3577 58.5508 65.91 58.1818C65.4623 57.8128 65.1569 57.2996 65.046 56.7301C64.9352 56.1606 65.0259 55.5703 65.3026 55.0604C65.5792 54.5504 66.0247 54.1526 66.5625 53.935V49.635C66.5537 48.8087 66.4643 47.9852 66.2956 47.1763L59.48 51.72C59.3514 51.8054 59.246 51.9214 59.1732 52.0575C59.1003 52.1936 59.0623 52.3456 59.0625 52.5V70C59.0634 70.9114 59.4259 71.7852 60.0703 72.4297C60.7148 73.0741 61.5886 73.4366 62.5 73.4375H72.5C73.4114 73.4366 74.2852 73.0741 74.9297 72.4297C75.5741 71.7852 75.9366 70.9114 75.9375 70V52.5C75.9377 52.3456 75.8997 52.1936 75.8268 52.0575C75.754 51.9214 75.6486 51.8054 75.52 51.72Z" fill="#4D2A7C"/>
<path d="M59.5801 38.3386C59.3577 38.2273 59.1886 38.0321 59.1101 37.7961C59.0316 37.5601 59.05 37.3025 59.1614 37.0801C59.2727 36.8577 59.4679 36.6886 59.7039 36.6101C59.9399 36.5316 60.1974 36.55 60.4199 36.6614C62.8917 37.8921 64.9598 39.8042 66.3801 42.1721C71.3194 39.821 74.6406 36.7881 75.6264 33.3853C75.6655 33.2448 75.6715 33.0973 75.6441 32.9541C75.6167 32.8109 75.5565 32.6761 75.4682 32.5601C75.3799 32.4441 75.266 32.3501 75.1354 32.2854C75.0047 32.2208 74.8609 32.1873 74.7151 32.1875H5.28486C5.1391 32.1873 4.99526 32.2208 4.86461 32.2854C4.73395 32.3501 4.62004 32.4441 4.53178 32.5601C4.44352 32.6761 4.38331 32.8109 4.35587 32.9541C4.32843 33.0973 4.33451 33.2448 4.37361 33.3853C6.65949 41.2768 21.4849 47.1875 40 47.1875C48.412 47.3511 56.7781 45.9091 64.65 42.9388C63.4166 40.9672 61.662 39.3751 59.5801 38.3386Z" fill="#4D2A7C"/>
<path d="M68.02 46.72L68.1593 46.8127C67.8398 45.1744 67.2377 43.6042 66.3801 42.1721C65.8242 42.4366 65.2476 42.6922 64.6503 42.9387C65.4527 44.239 66.0103 45.6752 66.2956 47.1762L66.98 46.72C67.134 46.6173 67.3149 46.5626 67.5 46.5626C67.6851 46.5626 67.866 46.6173 68.02 46.72Z" fill="#4D2A7C"/>
</svg>
