<svg width="162" height="49" viewBox="0 0 162 49" fill="none" xmlns="http://www.w3.org/2000/svg">
<mask id="mask0_138_1234" style="mask-type:luminance" maskUnits="userSpaceOnUse" x="0" y="0" width="162" height="49">
<path d="M162 0H0V48.8955H162V0Z" fill="white"/>
</mask>
<g mask="url(#mask0_138_1234)">
<path d="M100.479 38.1985C91.0766 45.1292 77.4479 48.827 65.7136 48.827C49.2605 48.827 34.4482 42.7417 23.2423 32.6202C22.3619 31.8244 23.1508 30.7397 24.2073 31.3595C36.3005 38.3958 51.2538 42.6289 66.6998 42.6289C77.1168 42.6289 88.5763 40.4737 99.1131 36.0012C100.705 35.325 102.036 37.0435 100.479 38.1985Z" fill="#FF9900"/>
<path d="M104.389 33.7258C103.191 32.1904 96.4436 33.0004 93.4152 33.3597C92.4925 33.4724 92.3515 32.6692 93.1826 32.0918C98.5568 28.3096 107.375 29.4013 108.403 30.6691C109.432 31.9439 108.136 40.7832 103.086 45.0023C102.311 45.6503 101.571 45.3052 101.916 44.446C103.05 41.6146 105.593 35.2684 104.389 33.7258Z" fill="#FF9900"/>
<path d="M93.6261 5.39102V1.71439C93.6261 1.15796 94.049 0.784668 94.556 0.784668H111.016C111.545 0.784668 111.967 1.16501 111.967 1.71439V4.86277C111.96 5.39102 111.516 6.08126 110.728 7.17295L102.198 19.3509C105.368 19.2734 108.713 19.7453 111.587 21.3653C112.235 21.7315 112.411 22.2668 112.46 22.7951V26.7182C112.46 27.2535 111.869 27.8804 111.249 27.5564C106.184 24.901 99.4581 24.6123 93.8588 27.5846C93.2882 27.8944 92.6895 27.2746 92.6895 26.7393V23.0134C92.6895 22.4148 92.6966 21.3934 93.2953 20.4849L103.177 6.31367H94.5771C94.049 6.31367 93.6261 5.94039 93.6261 5.39102Z" fill="#3F4040"/>
<path d="M33.5821 28.331H28.5742C28.0952 28.2958 27.7149 27.9366 27.6797 27.4787V1.77764C27.6797 1.26348 28.1093 0.854958 28.6446 0.854958H33.3145C33.8005 0.876076 34.1876 1.24939 34.223 1.71425V5.07392H34.3147C35.5329 1.82694 37.822 0.312622 40.9071 0.312622C44.0415 0.312622 45.9994 1.82694 47.4081 5.07392C48.6196 1.82694 51.3736 0.312622 54.3246 0.312622C56.4234 0.312622 58.7196 1.17895 60.1213 3.12291C61.7059 5.2852 61.3819 8.42654 61.3819 11.1805L61.3751 27.4013C61.3751 27.9154 60.9452 28.331 60.4099 28.331H55.4093C54.9091 28.2958 54.5076 27.8943 54.5076 27.4013V13.7795C54.5076 12.6948 54.6065 9.99016 54.367 8.96182C53.9934 7.23623 52.8737 6.75023 51.4228 6.75023C50.2114 6.75023 48.9436 7.5602 48.4294 8.8562C47.9152 10.1522 47.9645 12.3215 47.9645 13.7795V27.4013C47.9645 27.9154 47.5348 28.331 46.9996 28.331H41.9986C41.4916 28.2958 41.0973 27.8943 41.0973 27.4013L41.0901 13.7795C41.0901 10.9129 41.5622 6.69389 38.0053 6.69389C34.406 6.69389 34.547 10.8072 34.547 13.7795V27.4013C34.547 27.9154 34.1173 28.331 33.5821 28.331Z" fill="#3F4040"/>
<path d="M126.138 0.312622C133.569 0.312622 137.59 6.69388 137.59 14.8078C137.59 22.647 133.146 28.8663 126.138 28.8663C118.841 28.8663 114.869 22.485 114.869 14.5331C114.869 6.53189 118.89 0.312622 126.138 0.312622ZM126.18 5.55992C122.489 5.55992 122.257 10.5889 122.257 13.7231C122.257 16.8644 122.208 23.5697 126.138 23.5697C130.019 23.5697 130.202 18.1604 130.202 14.8641C130.202 12.6948 130.111 10.1029 129.455 8.0462C128.892 6.2572 127.772 5.55992 126.18 5.55992Z" fill="#3F4040"/>
<path d="M147.226 28.331H142.24C141.74 28.2958 141.338 27.8943 141.338 27.4013L141.331 1.69311C141.373 1.22121 141.789 0.854958 142.296 0.854958H146.938C147.374 0.876076 147.733 1.17191 147.832 1.57338V5.50354H147.923C149.325 1.98894 151.29 0.312622 154.749 0.312622C156.995 0.312622 159.186 1.1226 160.594 3.34126C161.905 5.39792 161.905 8.8562 161.905 11.3425V27.521C161.848 27.9718 161.433 28.331 160.94 28.331H155.918C155.46 28.2958 155.08 27.9577 155.03 27.521V13.5611C155.03 10.7509 155.354 6.63754 151.896 6.63754C150.677 6.63754 149.558 7.45457 149.001 8.6942C148.297 10.2649 148.205 11.8285 148.205 13.5611V27.4013C148.198 27.9154 147.761 28.331 147.226 28.331Z" fill="#3F4040"/>
<path d="M80.5045 16.0542V14.9695C76.8845 14.9695 73.0596 15.7442 73.0596 20.0125C73.0596 22.1748 74.1797 23.6398 76.1026 23.6398C77.5111 23.6398 78.7721 22.7735 79.5678 21.3648C80.5538 19.6322 80.5045 18.0051 80.5045 16.0542ZM85.5547 28.2602C85.2236 28.5561 84.7447 28.5772 84.3715 28.38C82.709 26.9995 82.4132 26.3585 81.4976 25.0415C78.7507 27.8447 76.8067 28.6829 73.243 28.6829C69.031 28.6829 65.7489 26.0839 65.7489 20.8788C65.7489 16.8148 67.9534 14.0468 71.0878 12.6945C73.8065 11.4971 77.6028 11.2858 80.5045 10.9548V10.3068C80.5045 9.11647 80.5962 7.70781 79.899 6.6795C79.2859 5.75682 78.117 5.37647 77.0886 5.37647C75.1799 5.37647 73.4753 6.3555 73.0596 8.38397C72.9754 8.83475 72.6443 9.27847 72.1936 9.29959L67.3336 8.77841C66.925 8.68684 66.4743 8.35578 66.5871 7.72894C67.7068 1.84072 73.0246 0.0657959 77.7858 0.0657959C80.223 0.0657959 83.4066 0.713781 85.3292 2.55913C87.7663 4.83413 87.5337 7.86981 87.5337 11.1731V18.9771C87.5337 21.3226 88.5057 22.3509 89.4213 23.6187C89.7453 24.0695 89.8159 24.6118 89.4074 24.9499C88.3861 25.8021 86.5688 27.3869 85.5686 28.2743L85.5547 28.2602Z" fill="#3F4040"/>
<path d="M14.8539 16.0543V14.9696C11.2337 14.9696 7.40912 15.7444 7.40912 20.0126C7.40912 22.1749 8.52899 23.64 10.4518 23.64C11.8605 23.64 13.1213 22.7736 13.9171 21.365C14.9032 19.6323 14.8539 18.0053 14.8539 16.0543ZM19.904 28.2604C19.573 28.5562 19.094 28.5773 18.7207 28.3801C17.0585 26.9996 16.7627 26.3587 15.847 25.0416C13.1001 27.8448 11.1562 28.683 7.59225 28.683C3.38034 28.683 0.0981445 26.084 0.0981445 20.879C0.0981445 16.815 2.30271 14.0469 5.437 12.6946C8.15571 11.4972 11.9521 11.2859 14.8539 10.9549V10.3069C14.8539 9.11659 14.9455 7.70794 14.2482 6.67963C13.6354 5.75694 12.4662 5.37659 11.4379 5.37659C9.52915 5.37659 7.82468 6.35562 7.40912 8.38409C7.32459 8.83487 6.99356 9.27859 6.54278 9.29972L1.68289 8.77853C1.27438 8.68697 0.823607 8.3559 0.936301 7.72906C2.05619 1.84084 7.3739 0.065918 12.1352 0.065918C14.5722 0.065918 17.7558 0.713903 19.6786 2.55926C22.1156 4.83425 21.8832 7.86994 21.8832 11.1732V18.9773C21.8832 21.3227 22.8551 22.351 23.7708 23.6188C24.0948 24.0696 24.1652 24.6119 23.7567 24.95C22.7354 25.8023 20.9182 27.387 19.9181 28.2745L19.904 28.2604Z" fill="#3F4040"/>
</g>
</svg>
