<svg width="80" height="80" viewBox="0 0 80 80" fill="none" xmlns="http://www.w3.org/2000/svg">
<path d="M57.5 35.7251C56.4619 37.055 55.1343 38.1308 53.6182 38.8707C52.102 39.6106 50.4371 39.9952 48.75 39.9952C47.0629 39.9952 45.398 39.6106 43.8818 38.8707C42.3657 38.1308 41.0381 37.055 40 35.7251C38.9619 37.055 37.6343 38.1308 36.1182 38.8707C34.602 39.6106 32.9371 39.9952 31.25 39.9952C29.5629 39.9952 27.898 39.6106 26.3818 38.8707C24.8656 38.1308 23.5381 37.055 22.5 35.7251C21.4599 37.0531 20.132 38.1279 18.6164 38.8684C17.1008 39.6089 15.4369 39.9958 13.75 40.0001C13.3337 40.0247 12.9163 40.0247 12.5 40.0001V67.5001C12.5 68.1631 12.7634 68.799 13.2322 69.2679C13.7011 69.7367 14.337 70.0001 15 70.0001H22.5V50.0001C22.5 49.3371 22.7634 48.7012 23.2322 48.2323C23.7011 47.7635 24.337 47.5001 25 47.5001H35C35.663 47.5001 36.2989 47.7635 36.7678 48.2323C37.2366 48.7012 37.5 49.3371 37.5 50.0001V70.0001H65C65.663 70.0001 66.2989 69.7367 66.7678 69.2679C67.2366 68.799 67.5 68.1631 67.5 67.5001V40.0001C67.0862 40.0665 66.6688 40.1082 66.25 40.1251C64.5528 40.106 62.8824 39.6998 61.366 38.9373C59.8497 38.1747 58.5274 37.0761 57.5 35.7251ZM57.5 57.5001C57.5 58.1631 57.2366 58.799 56.7678 59.2679C56.2989 59.7367 55.663 60.0001 55 60.0001H47.5C46.837 60.0001 46.2011 59.7367 45.7322 59.2679C45.2634 58.799 45 58.1631 45 57.5001V50.0001C45 49.3371 45.2634 48.7012 45.7322 48.2323C46.2011 47.7635 46.837 47.5001 47.5 47.5001H55C55.663 47.5001 56.2989 47.7635 56.7678 48.2323C57.2366 48.7012 57.5 49.3371 57.5 50.0001V57.5001Z" fill="#4D2A7C"/>
<path d="M25 28.75C25 30.4076 25.6585 31.9973 26.8306 33.1694C28.0027 34.3415 29.5924 35 31.25 35C32.9076 35 34.4973 34.3415 35.6694 33.1694C36.8415 31.9973 37.5 30.4076 37.5 28.75V10H30L25 22.5V28.75Z" fill="#4D2A7C"/>
<path d="M20 28.75V22.5L25 10H20C19.251 10.0005 18.5116 10.1692 17.8366 10.4937C17.1616 10.8183 16.5681 11.2903 16.1 11.875L8.59995 21.125C7.88882 22.0114 7.50084 23.1136 7.49995 24.25V28.4C7.46009 29.9958 8.00884 31.5505 9.04162 32.7677C10.0744 33.9849 11.519 34.7795 13.1 35C13.9736 35.0914 14.8568 34.9975 15.6918 34.7246C16.5267 34.4517 17.2948 34.0058 17.9459 33.4161C18.597 32.8264 19.1164 32.106 19.4703 31.302C19.8243 30.498 20.0047 29.6284 20 28.75Z" fill="#4D2A7C"/>
<path d="M48.75 35C50.4076 35 51.9973 34.3415 53.1694 33.1694C54.3415 31.9973 55 30.4076 55 28.75V22.5L50 10H42.5V28.75C42.5 30.4076 43.1585 31.9973 44.3306 33.1694C45.5027 34.3415 47.0924 35 48.75 35Z" fill="#4D2A7C"/>
<path d="M71.4 21.125L63.9 11.875C63.4319 11.2903 62.8384 10.8183 62.1633 10.4937C61.4883 10.1692 60.749 10.0005 60 10H55L60 22.5V28.75C59.9952 29.6284 60.1757 30.498 60.5296 31.302C60.8836 32.106 61.403 32.8264 62.0541 33.4161C62.7051 34.0058 63.4732 34.4517 64.3082 34.7246C65.1432 34.9975 66.0263 35.0914 66.9 35C68.481 34.7795 69.9256 33.9849 70.9583 32.7677C71.9911 31.5505 72.5399 29.9958 72.5 28.4V24.25C72.4991 23.1136 72.1111 22.0114 71.4 21.125Z" fill="#4D2A7C"/>
</svg>
