<svg width="80" height="80" viewBox="0 0 80 80" fill="none" xmlns="http://www.w3.org/2000/svg">
<path d="M41.1719 72.9688H6.01562C4.0741 72.9688 2.5 74.5428 2.5 76.4844C2.5 78.4259 4.0741 80 6.01562 80H41.1719C43.1134 80 44.6875 78.4259 44.6875 76.4844C44.6875 74.5428 43.1134 72.9688 41.1719 72.9688Z" fill="#4D2A7C"/>
<path d="M66.7517 23.5938H54.0625V25.8112L49.375 24.2487V18.4528C53.4149 17.4109 56.4062 13.7354 56.4062 9.375C56.4062 4.20471 52.2015 0 47.0312 0C41.861 0 37.6562 4.20471 37.6562 9.375H42.3438C42.3438 6.79077 44.447 4.6875 47.0312 4.6875C49.6155 4.6875 51.7188 6.79077 51.7188 9.375C51.7188 11.9592 49.6155 14.0625 47.0312 14.0625H44.6875V24.2487L40 25.8112V23.5938H27.3108L16.5625 34.342V51.7188H25.9375V56.5625H41.1719C45.6946 56.5625 49.375 60.2429 49.375 64.7656C49.375 67.0618 48.4204 69.1345 46.8945 70.625C48.4204 72.1155 49.375 74.1882 49.375 76.4844C49.375 77.7472 49.0643 78.9301 48.5522 80H68.125V51.7188H77.5V34.342L66.7517 23.5938ZM47.0312 37.6562C43.1952 37.6562 40.0787 34.5667 40.0122 30.7465L47.0312 28.407L54.0503 30.7465C53.9838 34.5667 50.8673 37.6562 47.0312 37.6562Z" fill="#4D2A7C"/>
<path d="M41.1719 61.25H6.01562C4.0741 61.25 2.5 62.8241 2.5 64.7656C2.5 66.7072 4.0741 68.2812 6.01562 68.2812H41.1719C43.1134 68.2812 44.6875 66.7072 44.6875 64.7656C44.6875 62.8241 43.1134 61.25 41.1719 61.25Z" fill="#4D2A7C"/>
</svg>
