<svg width="24" height="23" viewBox="0 0 24 23" fill="none" xmlns="http://www.w3.org/2000/svg">
<path d="M5.88889 4.52083C5.47633 4.52083 5.08067 4.68472 4.78895 4.97645C4.49722 5.26817 4.33333 5.66383 4.33333 6.07639V16.2986C4.33333 17.1573 5.02933 17.8542 5.88889 17.8542H16.1111C16.5237 17.8542 16.9193 17.6903 17.2111 17.3986C17.5028 17.1068 17.6667 16.7112 17.6667 16.2986V12.7431C17.6667 12.5662 17.7369 12.3967 17.8619 12.2717C17.987 12.1466 18.1565 12.0764 18.3333 12.0764C18.5101 12.0764 18.6797 12.1466 18.8047 12.2717C18.9298 12.3967 19 12.5662 19 12.7431V16.2986C19 17.0648 18.6956 17.7996 18.1539 18.3414C17.6121 18.8831 16.8773 19.1875 16.1111 19.1875H5.88889C5.12271 19.1875 4.38791 18.8831 3.84614 18.3414C3.30436 17.7996 3 17.0648 3 16.2986V6.07639C3 5.31021 3.30436 4.57541 3.84614 4.03364C4.38791 3.49186 5.12271 3.1875 5.88889 3.1875H9.44444C9.62126 3.1875 9.79082 3.25774 9.91585 3.38276C10.0409 3.50779 10.1111 3.67736 10.1111 3.85417C10.1111 4.03098 10.0409 4.20055 9.91585 4.32557C9.79082 4.4506 9.62126 4.52083 9.44444 4.52083H5.88889ZM11.8889 3.85417C11.8889 3.67736 11.9591 3.50779 12.0842 3.38276C12.2092 3.25774 12.3787 3.1875 12.5556 3.1875H18.3333C18.5101 3.1875 18.6797 3.25774 18.8047 3.38276C18.9298 3.50779 19 3.67736 19 3.85417V9.63194C19 9.80876 18.9298 9.97832 18.8047 10.1033C18.6797 10.2284 18.5101 10.2986 18.3333 10.2986C18.1565 10.2986 17.987 10.2284 17.8619 10.1033C17.7369 9.97832 17.6667 9.80876 17.6667 9.63194V5.46306L13.0267 10.1031C12.9003 10.2208 12.7331 10.2849 12.5604 10.2819C12.3877 10.2788 12.2229 10.2089 12.1008 10.0867C11.9786 9.96457 11.9087 9.79979 11.9056 9.62708C11.9026 9.45436 11.9667 9.28721 12.0844 9.16083L16.7244 4.52083H12.5556C12.3787 4.52083 12.2092 4.4506 12.0842 4.32557C11.9591 4.20055 11.8889 4.03098 11.8889 3.85417Z" fill="#606060"/>
</svg>
