<svg width="175" height="61" viewBox="0 0 175 61" fill="none" xmlns="http://www.w3.org/2000/svg">
<g clip-path="url(#clip0_138_760)">
<path d="M76.5069 27.963H73.012V12.3605H76.5069V27.963ZM80.5737 27.963H73.9651V24.7917H80.5737C81.6539 24.7917 82.48 24.6649 83.179 24.4112C83.8144 24.1575 84.3228 23.7135 84.577 23.0158C84.8947 22.3182 85.0218 21.3668 85.0218 20.1617C85.0218 18.8932 84.8947 17.9418 84.577 17.2442C84.2592 16.5465 83.8144 16.1025 83.179 15.8488C82.5435 15.5951 81.6539 15.4683 80.5737 15.4683H73.9651V12.297H80.5737C82.2258 12.297 83.6873 12.6142 84.9582 13.2484C86.1656 13.8827 87.1187 14.7706 87.8177 15.9122C88.5167 17.0539 88.8344 18.4492 88.8344 20.0983C88.8344 21.7473 88.5167 23.1427 87.8177 24.2843C87.1187 25.426 86.2291 26.3139 84.9582 26.9482C83.6873 27.6459 82.2258 27.963 80.5737 27.963Z" fill="#4D2A7C"/>
<path d="M93.7908 15.0877H90.2959V12.3604H93.7908V15.0877ZM93.7908 27.963H90.2959V16.2928H93.7908V27.963Z" fill="#4D2A7C"/>
<path d="M101.543 28.2167C99.5734 28.2167 98.0483 27.8361 97.0316 27.1385C95.9514 26.3774 95.443 25.3626 95.443 24.0306V23.9672H98.9379V24.1575C98.9379 24.6649 99.1286 25.0454 99.5098 25.2357C99.8911 25.426 100.59 25.4894 101.607 25.4894C102.56 25.4894 103.132 25.426 103.45 25.2357C103.767 25.0454 103.894 24.7917 103.894 24.4746C103.894 24.1575 103.767 23.9038 103.513 23.7769C103.259 23.6501 102.814 23.5232 102.115 23.4598L98.8108 23.0793C97.6671 22.9524 96.7139 22.6353 96.142 22.1279C95.5066 21.6205 95.1888 20.8594 95.1888 19.8446C95.1888 19.1469 95.3795 18.5127 95.8243 18.0053C96.2055 17.4345 96.841 16.9905 97.7306 16.6734C98.5567 16.3562 99.7005 16.166 101.035 16.166C102.306 16.166 103.386 16.3562 104.276 16.6734C105.165 16.9905 105.864 17.4979 106.309 18.1321C106.754 18.7664 107.008 19.5909 107.008 20.4789V20.5423H103.513V20.4154C103.513 20.0983 103.45 19.8446 103.322 19.5909C103.195 19.4006 102.941 19.2104 102.56 19.0835C102.179 18.9567 101.607 18.8932 100.908 18.8932C100.018 18.8932 99.4463 18.9567 99.1286 19.1469C98.8108 19.3372 98.6838 19.5909 98.6838 19.9715C98.6838 20.2886 98.8108 20.4789 99.065 20.6057C99.3192 20.7326 99.8276 20.8594 100.59 20.9862L103.068 21.3034C104.593 21.4936 105.737 21.8108 106.373 22.3816C107.008 22.9524 107.326 23.6501 107.326 24.6649C107.326 25.426 107.072 26.0602 106.627 26.5676C106.182 27.1385 105.483 27.519 104.657 27.8361C103.767 28.0898 102.751 28.2167 101.543 28.2167Z" fill="#4D2A7C"/>
<path d="M115.014 28.2167C113.68 28.2167 112.536 27.963 111.52 27.4556C110.503 26.9482 109.74 26.2505 109.232 25.3626C108.724 24.4746 108.406 23.3964 108.406 22.1279C108.406 20.8594 108.66 19.7812 109.232 18.8932C109.804 18.0053 110.566 17.3076 111.52 16.8002C112.536 16.2928 113.68 16.0391 115.014 16.0391C116.285 16.0391 117.366 16.2294 118.319 16.6733C119.272 17.1173 120.034 17.6881 120.543 18.4492C121.051 19.2103 121.305 20.0983 121.305 21.1131V21.4302H117.81V21.2399C117.81 20.4788 117.556 19.9714 117.048 19.6543C116.54 19.3372 115.841 19.2103 114.887 19.2103C113.871 19.2103 113.108 19.4006 112.6 19.8446C112.091 20.2886 111.837 21.0497 111.837 22.1279C111.837 23.2061 112.091 23.9038 112.6 24.3478C113.108 24.7917 113.871 24.982 114.887 24.982C115.777 24.982 116.54 24.8552 117.048 24.538C117.556 24.2209 117.81 23.7135 117.81 22.9524V22.7621H121.305V23.0793C121.305 24.0941 121.051 24.982 120.543 25.7431C120.034 26.5042 119.272 27.075 118.319 27.519C117.366 28.0264 116.222 28.2167 115.014 28.2167Z" fill="#4D2A7C"/>
<path d="M129.058 28.2167C127.723 28.2167 126.58 27.963 125.563 27.4556C124.546 26.9482 123.784 26.2505 123.212 25.3626C122.64 24.4746 122.386 23.3964 122.386 22.1279C122.386 20.8594 122.64 19.7812 123.212 18.8932C123.784 18.0053 124.546 17.3076 125.563 16.8002C126.58 16.2928 127.723 16.0391 129.058 16.0391C130.392 16.0391 131.536 16.2928 132.553 16.8002C133.569 17.3076 134.332 18.0053 134.904 18.8932C135.476 19.7812 135.73 20.8594 135.73 22.1279C135.73 23.333 135.476 24.4112 134.904 25.3626C134.332 26.2505 133.569 26.9482 132.553 27.4556C131.599 27.963 130.392 28.2167 129.058 28.2167ZM129.058 25.1089C130.265 25.1089 131.091 24.8552 131.536 24.4112C131.981 23.9672 132.235 23.2061 132.235 22.1913C132.235 21.1765 131.981 20.4154 131.536 19.908C131.091 19.4006 130.202 19.2103 129.058 19.2103C127.85 19.2103 127.024 19.464 126.58 19.908C126.135 20.4154 125.881 21.1765 125.881 22.1913C125.881 23.2061 126.135 23.9672 126.58 24.4112C127.024 24.8552 127.914 25.1089 129.058 25.1089Z" fill="#4D2A7C"/>
<path d="M142.021 28.2167C140.94 28.2167 140.051 28.0264 139.288 27.5824C138.589 27.2019 138.017 26.6311 137.7 25.9334C137.382 25.2357 137.191 24.4746 137.191 23.5867V16.2928H140.686V22.3816C140.686 23.333 140.94 23.9672 141.385 24.4112C141.83 24.8552 142.593 25.0454 143.736 25.0454C144.88 25.0454 145.706 24.7917 146.151 24.3478C146.596 23.9038 146.85 23.1427 146.85 22.1913H147.295L147.549 24.4112H146.914C146.85 25.0454 146.596 25.6797 146.215 26.2505C145.833 26.8213 145.325 27.2653 144.626 27.6459C143.927 28.0264 143.037 28.2167 142.021 28.2167ZM150.281 27.963H147.041V24.3478L146.786 24.2209V16.2928H150.281V27.963Z" fill="#4D2A7C"/>
<path d="M155.556 27.963H152.061V16.2928H155.301V19.908L155.556 20.0349V27.963ZM165.024 27.963H161.529V21.8742C161.529 20.9228 161.338 20.2251 160.893 19.8446C160.448 19.464 159.686 19.2103 158.606 19.2103C157.462 19.2103 156.699 19.464 156.255 19.908C155.81 20.352 155.619 21.1131 155.619 22.0645H155.174L154.92 19.8446H155.556C155.683 19.2103 155.873 18.5761 156.255 18.0053C156.636 17.4344 157.144 16.927 157.78 16.6099C158.415 16.2294 159.305 16.0391 160.321 16.0391C161.402 16.0391 162.291 16.2294 162.99 16.6733C163.689 17.0539 164.198 17.6247 164.579 18.3224C164.897 19.0201 165.087 19.7812 165.087 20.6691V27.963H165.024Z" fill="#4D2A7C"/>
<path d="M175 19.2104H165.85V16.2928H175V19.2104ZM175 27.963H172.077C170.679 27.963 169.662 27.6459 168.836 26.9482C168.074 26.2505 167.692 25.2357 167.692 23.7135V14.0729H171.187V23.3964C171.187 23.9672 171.314 24.3478 171.569 24.6015C171.823 24.8552 172.268 24.9186 172.839 24.9186H174.936V27.963H175Z" fill="#4D2A7C"/>
<path d="M80.8279 48.6395C79.1122 48.6395 77.6507 48.3224 76.3798 47.6247C75.1089 46.9905 74.1557 46.0391 73.4568 44.834C72.7578 43.6289 72.4401 42.2336 72.4401 40.5845C72.4401 38.9355 72.7578 37.5401 73.4568 36.3351C74.1557 35.13 75.1089 34.1786 76.3798 33.5444C77.6507 32.9101 79.1122 32.5296 80.8279 32.5296C82.48 32.5296 83.878 32.7833 85.0853 33.2907C86.2926 33.7981 87.1823 34.5592 87.8812 35.5105C88.5167 36.4619 88.8344 37.6036 88.8344 38.9355V39.316H84.9582V38.9355C84.9582 37.9207 84.6405 37.1596 84.0051 36.6522C83.3696 36.1448 82.3529 35.8911 80.955 35.8911C79.8112 35.8911 78.9215 36.0179 78.2226 36.3351C77.5236 36.6522 77.0152 37.0962 76.6975 37.7938C76.3798 38.4915 76.2527 39.3795 76.2527 40.5845C76.2527 41.7262 76.3798 42.6776 76.6975 43.3118C77.0152 44.0095 77.5236 44.5169 78.2226 44.7706C78.9215 45.0877 79.8112 45.2146 80.955 45.2146C82.3529 45.2146 83.3696 44.9609 84.0051 44.4535C84.6405 43.9461 84.9582 43.185 84.9582 42.1702V41.7896H88.8344V42.1702C88.8344 43.5021 88.5167 44.6437 87.8812 45.5951C87.2458 46.5465 86.2926 47.3076 85.0853 47.815C83.878 48.3224 82.48 48.6395 80.8279 48.6395Z" fill="#4D2A7C"/>
<path d="M96.5868 48.6395C95.2524 48.6395 94.1086 48.3858 93.0919 47.8784C92.0752 47.371 91.3126 46.6734 90.7407 45.7854C90.1689 44.8975 89.9147 43.8192 89.9147 42.5507C89.9147 41.2822 90.1689 40.204 90.7407 39.3161C91.3126 38.4281 92.0752 37.7304 93.0919 37.223C94.1086 36.7156 95.2524 36.4619 96.5868 36.4619C97.9212 36.4619 99.065 36.7156 100.082 37.223C101.098 37.7304 101.861 38.4281 102.433 39.3161C103.005 40.204 103.259 41.2822 103.259 42.5507C103.259 43.7558 103.005 44.834 102.433 45.7854C101.861 46.6734 101.098 47.371 100.082 47.8784C99.065 48.3858 97.9212 48.6395 96.5868 48.6395ZM96.5868 45.5317C97.7941 45.5317 98.6202 45.278 99.065 44.834C99.5098 44.3901 99.764 43.629 99.764 42.6142C99.764 41.5994 99.5098 40.8383 99.065 40.3309C98.6202 39.8235 97.7306 39.6332 96.5868 39.6332C95.3795 39.6332 94.5534 39.8869 94.1086 40.3309C93.6638 40.8383 93.4096 41.5994 93.4096 42.6142C93.4096 43.629 93.6638 44.3901 94.1086 44.834C94.5534 45.278 95.3795 45.5317 96.5868 45.5317Z" fill="#4D2A7C"/>
<path d="M109.931 48.6395C108.724 48.6395 107.707 48.3858 106.817 47.8784C105.928 47.371 105.356 46.6734 104.911 45.7854C104.466 44.8975 104.276 43.8192 104.276 42.5507C104.276 41.2822 104.466 40.204 104.911 39.3161C105.356 38.4281 105.991 37.7304 106.754 37.223C107.516 36.7156 108.533 36.4619 109.677 36.4619C111.075 36.4619 112.155 36.7791 112.854 37.4133C113.617 38.0476 114.061 38.8087 114.252 39.8235H114.887V42.4873H114.443C114.443 41.4725 114.125 40.7748 113.553 40.3309C112.981 39.8869 112.092 39.6966 111.011 39.6966C110.249 39.6966 109.677 39.76 109.169 39.9503C108.66 40.1406 108.342 40.4577 108.088 40.8383C107.834 41.2188 107.707 41.8531 107.707 42.5507C107.707 43.2484 107.834 43.8192 108.088 44.1998C108.342 44.6438 108.66 44.8975 109.169 45.0877C109.677 45.278 110.249 45.3414 111.011 45.3414C111.774 45.3414 112.409 45.278 112.918 45.0877C113.426 44.8975 113.807 44.5803 114.061 44.1998C114.316 43.8192 114.443 43.2484 114.443 42.5507H114.887L115.142 45.0877H114.506C114.316 46.2294 113.807 47.1173 112.981 47.6882C112.346 48.3224 111.265 48.6395 109.931 48.6395ZM118.065 48.3858H114.824V44.9609L114.57 44.6438V32.7833H118.065V48.3858Z" fill="#4D2A7C"/>
<path d="M126.071 48.6395C124.8 48.6395 123.656 48.4493 122.64 48.0053C121.623 47.5613 120.861 46.9271 120.352 45.9757C119.78 45.0877 119.526 43.9461 119.526 42.5507C119.526 41.2822 119.78 40.204 120.352 39.3161C120.924 38.4281 121.687 37.7304 122.64 37.223C123.593 36.7156 124.737 36.4619 126.008 36.4619C127.278 36.4619 128.422 36.6522 129.375 37.0962C130.329 37.5402 131.091 38.1744 131.599 38.9989C132.108 39.8235 132.362 40.9017 132.362 42.1068C132.362 42.297 132.362 42.4873 132.362 42.6776C132.362 42.8679 132.298 43.0581 132.298 43.2484H121.814V41.4091H129.82L129.058 42.5507C129.058 42.4239 129.058 42.2336 129.058 42.1068C129.058 41.9799 129.058 41.8531 129.058 41.6628C129.058 40.7748 128.804 40.1406 128.359 39.76C127.85 39.3795 127.088 39.1892 126.008 39.1892C124.8 39.1892 123.974 39.4429 123.529 39.8869C123.085 40.3309 122.83 41.092 122.83 42.0433V42.9313C122.83 43.9461 123.085 44.6438 123.529 45.0877C123.974 45.5317 124.8 45.7854 126.008 45.7854C127.024 45.7854 127.787 45.6586 128.168 45.4049C128.613 45.1512 128.804 44.7706 128.804 44.2632V44.0095H132.298V44.2632C132.298 45.0877 132.044 45.8488 131.536 46.4831C131.028 47.1173 130.329 47.6247 129.375 48.0053C128.422 48.4493 127.342 48.6395 126.071 48.6395Z" fill="#4D2A7C"/>
<path d="M145.833 48.3858H133.442V45.4049L138.462 41.4091L140.94 39.8869V39.6332L138.462 39.76H133.76V36.6522H145.516V39.6332L140.114 43.8192L137.89 45.2146V45.4683L140.114 45.278H145.897V48.3858H145.833Z" fill="#4D2A7C"/>
<path d="M57.5708 48.6395C55.0926 52.1913 51.7248 54.9186 47.658 56.9482C42.8286 59.2949 37.0461 60.5 30.4375 60.5H0V0.5H30.4375C35.6481 0.5 40.3504 1.2611 44.4808 2.71987L19.6986 8.87209L16.8391 13.629L15.6318 15.6586L2.47821 37.4133L15.7589 45.3414L16.8391 45.9757L31.8991 55.0455L57.5708 48.6395Z" fill="#4D2A7C"/>
<path d="M58.5875 2.71988L49.3737 5.00318L21.9227 11.7896L19.6351 15.5951L16.8392 20.1617L7.18048 36.2717L16.8392 42.1068L22.3675 45.4049L32.4074 51.4302L59.922 44.5803L68.5004 42.4239L58.5875 2.71988ZM24.9092 35.6374C23.0665 35.6374 21.605 34.1787 21.605 32.3393C21.605 30.5 23.0665 29.0412 24.9092 29.0412C26.752 29.0412 28.2135 30.5 28.2135 32.3393C28.2135 34.1787 26.6885 35.6374 24.9092 35.6374Z" fill="#3F4040"/>
</g>
<defs>
<clipPath id="clip0_138_760">
<rect width="175" height="60" fill="white" transform="translate(0 0.5)"/>
</clipPath>
</defs>
</svg>
