<svg width="105" height="80" viewBox="0 0 105 80" fill="none" xmlns="http://www.w3.org/2000/svg">
<path d="M15.1694 45.0386H18.7388V65.483V69.9275C18.7388 72.2977 16.9541 73.7792 14.8719 73.7792C12.7898 73.7792 11.3025 72.0015 11.3025 69.9275V65.7792V16.0015V11.557C11.3025 10.0755 11.6 6.22368 14.277 6.22368C16.6566 6.22368 18.1439 8.29774 18.7388 11.557C19.6312 14.8163 20.2261 22.2237 20.2261 25.4829C20.2261 26.6681 20.5235 26.9643 22.0107 26.9643C22.9031 26.9643 24.6878 26.9643 24.6878 26.9643V5.33479H22.3082V6.51997C22.3082 7.70514 21.7133 7.40885 21.1184 7.11257C19.0362 5.63108 16.6566 4.74219 14.277 4.74219C10.7076 4.74219 5.35352 6.22368 5.35352 13.3348V64.8903C5.35352 73.7792 10.1127 75.557 14.8719 75.557C18.4413 75.557 20.2261 73.7792 21.4158 72.8903C22.3082 72.2977 23.2005 73.483 23.2005 74.9643H24.9853V45.3348H27.9599V43.2608H15.1694V45.0386Z" fill="#153F51"/>
<path d="M89.2351 5.33203H76.7422V7.4061H80.0142V10.3691V70.8136C80.0142 72.2949 79.4194 72.5914 77.3373 72.8876H76.7422V74.6654H91.0198V72.8876H89.2351C86.8555 72.8876 85.9633 71.7025 85.9633 69.6282V45.0358H90.1276C96.0766 45.0358 99.6458 42.0727 99.6458 38.2209V25.4802V12.7394C99.6458 8.88759 96.6714 5.33203 89.2351 5.33203ZM93.6971 24.8876V38.5171C93.6971 40.5914 92.2097 42.6654 89.5328 42.6654H85.9633V25.1839V7.4061H89.2351C92.2097 7.4061 93.6971 10.0728 93.6971 11.8505V24.8876Z" fill="#153F51"/>
<path d="M45.8068 42.9616L49.0788 15.1098L52.9457 42.9616H45.8068ZM62.464 69.6283L54.4328 5.33203H48.1863L40.1554 69.9247C39.8577 71.9987 39.5603 72.5914 36.5859 72.5914V72.8876V74.3692H46.6993V72.5914C45.5094 72.5914 44.3197 72.2949 43.7246 71.7025C43.4272 71.406 43.1298 70.8136 43.1298 70.2209L46.1042 44.7394H53.838L57.11 70.2209C57.11 71.7025 56.8126 72.2949 55.0279 72.5914H53.5406V74.3692H66.3309V72.5914H66.0335C63.3565 72.5914 62.464 71.1098 62.464 69.6283Z" fill="#153F51"/>
</svg>
