<svg width="105" height="80" viewBox="0 0 105 80" fill="none" xmlns="http://www.w3.org/2000/svg">
<path d="M15.17 45.0371H18.7394V65.4816V69.926C18.7394 72.2962 16.9547 73.7778 14.8726 73.7778C12.7904 73.7778 11.3031 72 11.3031 69.926V65.7778V16V11.5555C11.3031 10.0741 11.6006 6.22221 14.2777 6.22221C16.6572 6.22221 18.1445 8.29628 18.7394 11.5555C19.6318 14.8148 20.2267 22.2222 20.2267 25.4815C20.2267 26.6667 20.5241 26.9629 22.0114 26.9629C22.9037 26.9629 24.6884 26.9629 24.6884 26.9629V5.33332H22.3088V6.5185C22.3088 7.70368 21.7139 7.40739 21.119 7.1111C19.0369 5.62961 16.6572 4.74072 14.2777 4.74072C10.7082 4.74072 5.35413 6.22221 5.35413 13.3333V64.8889C5.35413 73.7778 10.1133 75.5555 14.8726 75.5555C18.442 75.5555 20.2267 73.7778 21.4164 72.8889C22.3088 72.2962 23.2012 73.4816 23.2012 74.9629H24.9859V45.3333H27.9605V43.2593H15.17V45.0371Z" fill="white"/>
<path d="M89.2351 5.33337H76.7422V7.40744H80.0142V10.3704V70.8149C80.0142 72.2962 79.4194 72.5927 77.3373 72.8889H76.7422V74.6667H91.0198V72.8889H89.2351C86.8555 72.8889 85.9633 71.7038 85.9633 69.6296V45.0372H90.1276C96.0766 45.0372 99.6458 42.074 99.6458 38.2223V25.4815V12.7408C99.6458 8.88893 96.6714 5.33337 89.2351 5.33337ZM93.6971 24.8889V38.5185C93.6971 40.5927 92.2097 42.6667 89.5328 42.6667H85.9633V25.1852V7.40744H89.2351C92.2097 7.40744 93.6971 10.0741 93.6971 11.8519V24.8889Z" fill="white"/>
<path d="M45.8073 42.9629L49.0793 15.1112L52.9462 42.9629H45.8073ZM62.4645 69.6296L54.4333 5.33337H48.1868L40.1559 69.9261C39.8582 72 39.5608 72.5927 36.5864 72.5927V72.8889V74.3705H46.6998V72.5927C45.5099 72.5927 44.3202 72.2963 43.7251 71.7038C43.4277 71.4074 43.1303 70.8149 43.1303 70.2223L46.1047 44.7407H53.8385L57.1105 70.2223C57.1105 71.7038 56.8131 72.2962 55.0284 72.5927H53.541V74.3705H66.3314V72.5927H66.0339C63.357 72.5927 62.4645 71.1112 62.4645 69.6296Z" fill="white"/>
</svg>
