<svg width="24" height="25" viewBox="0 0 24 25" fill="none" xmlns="http://www.w3.org/2000/svg">
<path fill-rule="evenodd" clip-rule="evenodd" d="M12 23C14.7848 23 17.4555 21.8938 19.4246 19.9246C21.3938 17.9555 22.5 15.2848 22.5 12.5C22.5 9.71523 21.3938 7.04451 19.4246 5.07538C17.4555 3.10625 14.7848 2 12 2C9.21523 2 6.54451 3.10625 4.57538 5.07538C2.60625 7.04451 1.5 9.71523 1.5 12.5C1.5 15.2848 2.60625 17.9555 4.57538 19.9246C6.54451 21.8938 9.21523 23 12 23ZM13.125 7.25C13.125 6.95163 13.0065 6.66548 12.7955 6.4545C12.5845 6.24353 12.2984 6.125 12 6.125C11.7016 6.125 11.4155 6.24353 11.2045 6.4545C10.9935 6.66548 10.875 6.95163 10.875 7.25V12.5C10.875 12.6747 10.9157 12.8469 10.9938 13.0031C11.0719 13.1593 11.1853 13.2952 11.325 13.4L14.325 15.65C14.4432 15.7386 14.5777 15.8031 14.7208 15.8398C14.8639 15.8765 15.0128 15.8846 15.1591 15.8637C15.3054 15.8428 15.4461 15.7933 15.5732 15.718C15.7003 15.6428 15.8114 15.5432 15.9 15.425C15.9886 15.3068 16.0531 15.1723 16.0898 15.0292C16.1265 14.8861 16.1346 14.7372 16.1137 14.5909C16.0928 14.4446 16.0433 14.3039 15.968 14.1768C15.8928 14.0497 15.7932 13.9386 15.675 13.85L13.125 11.9375V7.25Z" fill="#4D2A7C"/>
</svg>
