<svg width="24" height="25" viewBox="0 0 24 25" fill="none" xmlns="http://www.w3.org/2000/svg">
<path d="M21 19.5L15.846 14.346C16.7988 12.8979 17.1804 11.1478 16.917 9.43446C16.6535 7.72114 15.7637 6.16651 14.4199 5.07157C13.076 3.97662 11.3737 3.41926 9.64245 3.50738C7.91123 3.5955 6.27429 4.32284 5.04855 5.54858C3.82281 6.77432 3.09547 8.41126 3.00735 10.1425C2.91923 11.8737 3.47659 13.576 4.57154 14.9199C5.66648 16.2638 7.22111 17.1536 8.93442 17.417C10.6477 17.6805 12.3979 17.2988 13.846 16.346L19 21.5L21 19.5ZM4.99998 10.5C4.99998 7.74301 7.24298 5.50001 9.99998 5.50001C12.757 5.50001 15 7.74301 15 10.5C15 13.257 12.757 15.5 9.99998 15.5C7.24298 15.5 4.99998 13.257 4.99998 10.5Z" fill="#4D2A7C"/>
</svg>
