<svg width="57" height="35" viewBox="0 0 57 35" fill="none" xmlns="http://www.w3.org/2000/svg">
<path d="M15.5558 34.607C17.5973 34.607 19.2522 32.9543 19.2522 30.9155C19.2522 28.8768 17.5973 27.2241 15.5558 27.2241C13.5143 27.2241 11.8594 28.8768 11.8594 30.9155C11.8594 32.9543 13.5143 34.607 15.5558 34.607Z" fill="white"/>
<path d="M7.31583 14.6118C11.3562 14.6118 14.6317 11.3409 14.6317 7.30592C14.6317 3.27097 11.3562 0 7.31583 0C3.27541 0 0 3.27097 0 7.30592C0 11.3409 3.27541 14.6118 7.31583 14.6118Z" fill="white"/>
<path d="M44.742 32.2232C51.3343 32.2232 56.6783 26.8863 56.6783 20.303C56.6783 13.7197 51.3343 8.38281 44.742 8.38281C38.1497 8.38281 32.8057 13.7197 32.8057 20.303C32.8057 26.8863 38.1497 32.2232 44.742 32.2232Z" fill="white"/>
</svg>
