<svg width="162" height="49" viewBox="0 0 162 49" fill="none" xmlns="http://www.w3.org/2000/svg">
<path d="M100.479 38.1985C91.0766 45.1292 77.4479 48.827 65.7136 48.827C49.2605 48.827 34.4482 42.7417 23.2423 32.6202C22.3619 31.8244 23.1508 30.7397 24.2073 31.3595C36.3005 38.3958 51.2538 42.6289 66.6998 42.6289C77.1168 42.6289 88.5763 40.4737 99.1131 36.0012C100.705 35.325 102.036 37.0435 100.479 38.1985Z" fill="#F0C12A"/>
<path d="M104.389 33.7258C103.191 32.1904 96.4436 33.0004 93.4152 33.3597C92.4925 33.4724 92.3515 32.6692 93.1826 32.0918C98.5568 28.3096 107.375 29.4013 108.403 30.6691C109.432 31.9439 108.136 40.7832 103.086 45.0023C102.311 45.6503 101.571 45.3052 101.916 44.446C103.05 41.6146 105.593 35.2684 104.389 33.7258Z" fill="#F0C12A"/>
<path d="M93.6261 5.39102V1.71439C93.6261 1.15796 94.049 0.784668 94.556 0.784668H111.016C111.545 0.784668 111.967 1.16501 111.967 1.71439V4.86277C111.96 5.39102 111.516 6.08126 110.728 7.17295L102.198 19.3509C105.368 19.2734 108.713 19.7453 111.587 21.3653C112.235 21.7315 112.411 22.2668 112.46 22.7951V26.7182C112.46 27.2535 111.869 27.8804 111.249 27.5564C106.184 24.901 99.4581 24.6123 93.8588 27.5846C93.2882 27.8944 92.6895 27.2746 92.6895 26.7393V23.0134C92.6895 22.4148 92.6966 21.3934 93.2953 20.4849L103.177 6.31367H94.5771C94.049 6.31367 93.6261 5.94039 93.6261 5.39102Z" fill="#3F4040"/>
<path d="M33.5821 28.3309H28.5742C28.0952 28.2957 27.7149 27.9364 27.6797 27.4786V1.77752C27.6797 1.26335 28.1093 0.854836 28.6446 0.854836H33.3145C33.8005 0.875954 34.1876 1.24926 34.223 1.71412V5.0738H34.3147C35.5329 1.82682 37.822 0.3125 40.9071 0.3125C44.0415 0.3125 45.9994 1.82682 47.4081 5.0738C48.6196 1.82682 51.3736 0.3125 54.3246 0.3125C56.4234 0.3125 58.7196 1.17883 60.1213 3.12279C61.7059 5.28508 61.3819 8.42642 61.3819 11.1804L61.3751 27.4012C61.3751 27.9153 60.9452 28.3309 60.4099 28.3309H55.4093C54.9091 28.2957 54.5076 27.8942 54.5076 27.4012V13.7794C54.5076 12.6947 54.6065 9.99004 54.367 8.9617C53.9934 7.23611 52.8737 6.75011 51.4228 6.75011C50.2114 6.75011 48.9436 7.56008 48.4294 8.85608C47.9152 10.152 47.9645 12.3214 47.9645 13.7794V27.4012C47.9645 27.9153 47.5348 28.3309 46.9996 28.3309H41.9986C41.4916 28.2957 41.0973 27.8942 41.0973 27.4012L41.0901 13.7794C41.0901 10.9127 41.5622 6.69376 38.0053 6.69376C34.406 6.69376 34.547 10.8071 34.547 13.7794V27.4012C34.547 27.9153 34.1173 28.3309 33.5821 28.3309Z" fill="#3F4040"/>
<path d="M126.138 0.3125C133.569 0.3125 137.59 6.69376 137.59 14.8077C137.59 22.6469 133.146 28.8662 126.138 28.8662C118.841 28.8662 114.869 22.4849 114.869 14.533C114.869 6.53176 118.89 0.3125 126.138 0.3125ZM126.18 5.5598C122.489 5.5598 122.257 10.5887 122.257 13.723C122.257 16.8643 122.208 23.5696 126.138 23.5696C130.019 23.5696 130.202 18.1603 130.202 14.864C130.202 12.6947 130.111 10.1027 129.455 8.04607C128.892 6.25708 127.772 5.5598 126.18 5.5598Z" fill="#3F4040"/>
<path d="M147.226 28.3309H142.24C141.74 28.2957 141.338 27.8942 141.338 27.4012L141.331 1.69299C141.373 1.22109 141.789 0.854836 142.296 0.854836H146.938C147.374 0.875954 147.733 1.17179 147.832 1.57326V5.50342H147.923C149.325 1.98881 151.29 0.3125 154.749 0.3125C156.995 0.3125 159.186 1.12248 160.594 3.34114C161.905 5.3978 161.905 8.85607 161.905 11.3424V27.5209C161.848 27.9717 161.433 28.3309 160.94 28.3309H155.918C155.46 28.2957 155.08 27.9576 155.03 27.5209V13.561C155.03 10.7507 155.354 6.63742 151.896 6.63742C150.677 6.63742 149.558 7.45445 149.001 8.69408C148.297 10.2647 148.205 11.8284 148.205 13.561V27.4012C148.198 27.9153 147.761 28.3309 147.226 28.3309Z" fill="#3F4040"/>
<path d="M80.5046 16.054V14.9694C76.8846 14.9694 73.0598 15.7441 73.0598 20.0124C73.0598 22.1747 74.1798 23.6397 76.1028 23.6397C77.5112 23.6397 78.7722 22.7734 79.5679 21.3647C80.5539 19.6321 80.5046 18.005 80.5046 16.054ZM85.5548 28.2601C85.2237 28.556 84.7448 28.5771 84.3716 28.3799C82.7091 26.9994 82.4133 26.3584 81.4977 25.0413C78.7508 27.8446 76.8068 28.6827 73.2431 28.6827C69.0311 28.6827 65.749 26.0837 65.749 20.8787C65.749 16.8147 67.9535 14.0467 71.0879 12.6944C73.8066 11.497 77.6029 11.2857 80.5046 10.9547V10.3067C80.5046 9.11635 80.5963 7.70769 79.8991 6.67938C79.2861 5.75669 78.1171 5.37635 77.0887 5.37635C75.18 5.37635 73.4755 6.35538 73.0598 8.38385C72.9755 8.83463 72.6444 9.27835 72.1937 9.29947L67.3337 8.77829C66.9251 8.68672 66.4745 8.35566 66.5872 7.72882C67.707 1.8406 73.0248 0.0656738 77.7859 0.0656738C80.2231 0.0656738 83.4067 0.713659 85.3293 2.55901C87.7664 4.83401 87.5338 7.86969 87.5338 11.173V18.977C87.5338 21.3225 88.5058 22.3508 89.4214 23.6186C89.7454 24.0693 89.8161 24.6117 89.4075 24.9498C88.3863 25.802 86.5689 27.3868 85.5688 28.2742L85.5548 28.2601Z" fill="#3F4040"/>
<path d="M14.8539 16.0543V14.9696C11.2337 14.9696 7.40912 15.7444 7.40912 20.0126C7.40912 22.1749 8.52899 23.64 10.4518 23.64C11.8605 23.64 13.1213 22.7736 13.9171 21.365C14.9032 19.6323 14.8539 18.0053 14.8539 16.0543ZM19.904 28.2604C19.573 28.5562 19.094 28.5773 18.7207 28.3801C17.0585 26.9996 16.7627 26.3587 15.847 25.0416C13.1001 27.8448 11.1562 28.683 7.59225 28.683C3.38034 28.683 0.0981445 26.084 0.0981445 20.879C0.0981445 16.815 2.30271 14.0469 5.437 12.6946C8.15571 11.4972 11.9521 11.2859 14.8539 10.9549V10.3069C14.8539 9.11659 14.9455 7.70794 14.2482 6.67963C13.6354 5.75694 12.4662 5.37659 11.4379 5.37659C9.52915 5.37659 7.82468 6.35562 7.40912 8.38409C7.32459 8.83487 6.99356 9.27859 6.54278 9.29972L1.68289 8.77853C1.27438 8.68697 0.823607 8.3559 0.936301 7.72906C2.05619 1.84084 7.3739 0.065918 12.1352 0.065918C14.5722 0.065918 17.7558 0.713903 19.6786 2.55926C22.1156 4.83425 21.8832 7.86994 21.8832 11.1732V18.9773C21.8832 21.3227 22.8551 22.351 23.7708 23.6188C24.0948 24.0696 24.1652 24.6119 23.7567 24.95C22.7354 25.8023 20.9182 27.387 19.9181 28.2745L19.904 28.2604Z" fill="#3F4040"/>
</svg>
