<svg width="101" height="100" viewBox="0 0 101 100" fill="none" xmlns="http://www.w3.org/2000/svg">
<path d="M101 97L4 -4.24e-06L50.8466 -2.19228e-06L101 50.1534L101 97Z" fill="#FF383C"/>
<path d="M97 99.3094L101 97L97 93L97 99.3094Z" fill="#C70004"/>
<path d="M4 -1.74846e-07L8 4L-1.74846e-07 4L4 -1.74846e-07Z" fill="#C70004"/>
<path d="M47.2689 12.7328L40.8527 19.1491L39.5657 17.8621L42.2959 15.132L39.5473 12.3835L36.8172 15.1136L35.5303 13.8267L41.9466 7.41038L43.2335 8.69731L40.5953 11.3355L43.3438 14.084L45.982 11.4458L47.2689 12.7328ZM44.2979 22.7598C43.8077 22.2695 43.4737 21.7211 43.296 21.1144C43.1244 20.5015 43.1244 19.8826 43.296 19.2575C43.4737 18.6385 43.823 18.0686 44.3439 17.5477C44.8648 17.0268 45.4378 16.6806 46.0629 16.509C46.6941 16.3435 47.3161 16.3527 47.9289 16.5366C48.5479 16.7143 49.1025 17.0483 49.5928 17.5385C50.083 18.0288 50.417 18.5834 50.5947 19.2023C50.7786 19.8152 50.7847 20.4341 50.6131 21.0592C50.4476 21.6904 50.1045 22.2665 49.5836 22.7874C49.0627 23.3083 48.4835 23.6484 47.8462 23.8077C47.215 23.9732 46.5868 23.964 45.9618 23.7802C45.3489 23.5963 44.7943 23.2562 44.2979 22.7598ZM45.4194 21.6383C45.6523 21.8712 45.925 22.0336 46.2375 22.1255C46.5623 22.2174 46.8994 22.2113 47.2487 22.1071C47.598 22.003 47.9351 21.7885 48.2599 21.4637C48.744 20.9795 48.9861 20.4801 48.9861 19.9653C48.9983 19.4505 48.8206 19.0093 48.4529 18.6416C48.0852 18.2739 47.644 18.0962 47.1292 18.1084C46.6267 18.1207 46.1333 18.3689 45.6492 18.853C45.1651 19.3372 44.9108 19.8305 44.8862 20.333C44.874 20.8355 45.0517 21.2706 45.4194 21.6383ZM53.5151 23.7406L51.0515 26.2041C50.8799 26.3757 50.7942 26.5412 50.7942 26.7005C50.8064 26.8599 50.9106 27.0376 51.1067 27.2337L51.7042 27.8312L50.6195 28.9159L49.8106 28.107C48.7259 27.0223 48.7105 25.9529 49.7646 24.8988L52.219 22.4445L51.6123 21.8378L52.6694 20.7806L53.2761 21.3873L54.5355 20.128L55.8316 21.4241L54.5722 22.6835L55.7121 23.8233L54.655 24.8804L53.5151 23.7406ZM56.6495 35.0746C56.0489 34.474 55.6383 33.7815 55.4177 32.9971C55.1971 32.2127 55.1879 31.4252 55.3901 30.6347C55.5985 29.838 56.0183 29.124 56.6495 28.4928C57.2746 27.8677 57.9824 27.4541 58.7729 27.2519C59.5696 27.0435 60.3601 27.0496 61.1446 27.2702C61.929 27.4909 62.6215 27.9015 63.222 28.502C63.8287 29.1087 64.2393 29.8012 64.4538 30.5795C64.6744 31.3639 64.6775 32.1514 64.463 32.9419C64.2608 33.7325 63.8471 34.4403 63.222 35.0654C62.5908 35.6966 61.8769 36.1164 61.0802 36.3247C60.2958 36.5331 59.5114 36.527 58.727 36.3064C57.9425 36.0857 57.2501 35.6752 56.6495 35.0746ZM57.7985 33.9255C58.1846 34.3116 58.6105 34.5659 59.0763 34.6885C59.5482 34.8049 60.0292 34.7835 60.5195 34.6242C61.0097 34.4648 61.4694 34.1707 61.8983 33.7417C62.3273 33.3127 62.6184 32.8562 62.7716 32.372C62.931 31.8818 62.9493 31.4038 62.8268 30.938C62.7042 30.4723 62.4499 30.0463 62.0638 29.6603C61.6777 29.2742 61.2487 29.0168 60.7769 28.8881C60.3111 28.7655 59.8331 28.7839 59.3429 28.9433C58.8587 29.0965 58.4022 29.3876 57.9732 29.8165C57.5442 30.2455 57.2501 30.7051 57.0907 31.1954C56.9314 31.6857 56.9099 32.1667 57.0264 32.6386C57.1551 33.1105 57.4125 33.5395 57.7985 33.9255ZM67.3233 37.5488L66.4316 36.6571L62.3962 40.6926L61.0908 39.3872L65.1263 35.3518L64.5472 34.7727L65.6043 33.7155L66.1834 34.2947L66.4408 34.0373C67.0659 33.4122 67.7032 33.1303 68.3528 33.1916C69.0024 33.2529 69.6765 33.6512 70.3752 34.3866L69.2905 35.4713C68.984 35.1526 68.7144 34.9872 68.4815 34.9749C68.2487 34.9626 67.9882 35.1005 67.7002 35.3886L67.4887 35.6L68.3804 36.4916L67.3233 37.5488ZM70.4921 40.7176L69.6005 39.826L65.565 43.8614L64.2597 42.5561L68.2952 38.5207L67.716 37.9415L68.7732 36.8844L69.3523 37.4635L69.6097 37.2061C70.2348 36.5811 70.8721 36.2992 71.5217 36.3604C72.1713 36.4217 72.8454 36.8201 73.544 37.5555L72.4593 38.6402C72.1529 38.3215 71.8833 38.156 71.6504 38.1438C71.4175 38.1315 71.1571 38.2694 70.869 38.5574L70.6576 38.7688L71.5493 39.6605L70.4921 40.7176ZM74.6814 47.6646C74.4975 47.8484 74.3198 48.0016 74.1482 48.1242L70.4253 44.4013C70.0882 44.7996 69.9289 45.2163 69.9473 45.6514C69.9657 46.0865 70.1403 46.4696 70.4712 46.8005C70.9493 47.2785 71.4947 47.4133 72.1075 47.2049L73.4955 48.593C72.8582 48.9362 72.1718 49.0587 71.4364 48.9607C70.7072 48.8565 70.0392 48.5011 69.4325 47.8944C68.9422 47.4041 68.6083 46.8556 68.4305 46.2489C68.2651 45.6422 68.2712 45.0294 68.4489 44.4105C68.6328 43.7976 68.9851 43.2308 69.506 42.7099C70.0331 42.1828 70.603 41.8274 71.2158 41.6435C71.8287 41.4597 72.4354 41.4536 73.0359 41.6252C73.6365 41.7968 74.188 42.1338 74.6906 42.6363C75.1747 43.1205 75.5025 43.6567 75.6741 44.245C75.8519 44.8394 75.8519 45.4339 75.6741 46.0283C75.5087 46.6228 75.1778 47.1682 74.6814 47.6646ZM73.7162 45.964C74.041 45.6269 74.185 45.2439 74.1482 44.8149C74.1176 44.3798 73.9337 43.9937 73.5967 43.6567C73.278 43.338 72.9103 43.1664 72.4936 43.1419C72.0891 43.1174 71.6908 43.2522 71.2986 43.5464L73.7162 45.964ZM78.5531 48.2454C78.9882 48.1412 79.4141 48.1443 79.8308 48.2546C80.2537 48.371 80.6367 48.6008 80.9799 48.944L79.6286 50.2953L79.2885 49.9552C78.884 49.5507 78.4826 49.3393 78.0843 49.3209C77.6921 49.3087 77.26 49.5385 76.7881 50.0103L74.251 52.5474L72.9641 51.2605L78.0567 46.1679L79.3436 47.4549L78.5531 48.2454ZM78.5466 57.0085C78.1299 56.5918 77.8296 56.1444 77.6458 55.6664C77.468 55.1823 77.4098 54.7134 77.4711 54.26C77.5385 53.8126 77.7193 53.4235 78.0135 53.0925L79.3096 54.3887C79.138 54.6093 79.0706 54.8667 79.1074 55.1608C79.1502 55.4611 79.2973 55.7369 79.5486 55.9881C79.7937 56.2333 80.0327 56.3742 80.2656 56.411C80.5046 56.4539 80.7007 56.3987 80.8539 56.2455C81.0194 56.0801 81.0561 55.8717 80.9642 55.6204C80.8845 55.3692 80.7099 55.0107 80.4402 54.5449C80.1522 54.073 79.9347 53.6655 79.7876 53.3223C79.6466 52.9853 79.5884 52.6268 79.6129 52.2468C79.6436 51.873 79.8305 51.5145 80.1737 51.1713C80.4556 50.8894 80.7926 50.7117 81.1848 50.6382C81.5832 50.5707 81.9999 50.6198 82.435 50.7852C82.8762 50.9568 83.3021 51.2479 83.7127 51.6585C84.3194 52.2652 84.6504 52.9025 84.7055 53.5705C84.7668 54.2324 84.5584 54.8391 84.0804 55.3906L82.8487 54.1588C83.0325 53.9382 83.106 53.6931 83.0693 53.4235C83.0448 53.1538 82.9069 52.8934 82.6556 52.6421C82.4227 52.4092 82.1991 52.2713 81.9846 52.2284C81.7762 52.1917 81.5954 52.2499 81.4422 52.4031C81.2706 52.5747 81.2247 52.7922 81.3043 53.0558C81.3901 53.3131 81.5678 53.6686 81.8375 54.1221C82.1133 54.5817 82.3216 54.98 82.4626 55.3171C82.6035 55.6541 82.6556 56.0126 82.6188 56.3926C82.5943 56.7725 82.4166 57.1341 82.0857 57.4773C81.7915 57.7715 81.4453 57.9522 81.0469 58.0196C80.6547 58.0932 80.238 58.0442 79.7968 57.8726C79.3678 57.701 78.9511 57.4129 78.5466 57.0085Z" fill="white"/>
</svg>
