<svg width="20" height="21" viewBox="0 0 20 21" fill="none" xmlns="http://www.w3.org/2000/svg">
<path d="M4 4.167C4 3.19445 4.38634 2.26174 5.07404 1.57404C5.76174 0.886344 6.69445 0.5 7.667 0.5H16.333C17.3055 0.5 18.2383 0.886344 18.926 1.57404C19.6137 2.26174 20 3.19445 20 4.167V12.833C20 13.8055 19.6137 14.7383 18.926 15.426C18.2383 16.1137 17.3055 16.5 16.333 16.5H7.667C6.69445 16.5 5.76174 16.1137 5.07404 15.426C4.38634 14.7383 4 13.8055 4 12.833V4.167Z" fill="#4D2A7C"/>
<path d="M0 7.50004C0 6.40604 0.533 5.67204 1.514 5.12604C1.7458 4.99714 2.01931 4.96561 2.27436 5.03837C2.52941 5.11114 2.7451 5.28224 2.874 5.51404C3.0029 5.74584 3.03443 6.01935 2.96167 6.2744C2.8889 6.52944 2.7178 6.74514 2.486 6.87404C2.088 7.09504 2 7.21604 2 7.50004V17.5C2 18.048 2.452 18.5 3 18.5H12.998C13.318 18.5 13.616 18.346 13.803 18.093L13.868 17.993C13.933 17.8789 14.0198 17.7787 14.1236 17.6982C14.2273 17.6176 14.3459 17.5583 14.4725 17.5235C14.5992 17.4888 14.7315 17.4794 14.8618 17.4958C14.9921 17.5121 15.1179 17.554 15.232 17.619C15.3461 17.684 15.4463 17.7709 15.5269 17.8746C15.6074 17.9783 15.6668 18.0969 15.7015 18.2236C15.7362 18.3502 15.7457 18.4825 15.7293 18.6128C15.7129 18.7431 15.671 18.8689 15.606 18.983C15.3442 19.4434 14.9652 19.8263 14.5074 20.0927C14.0497 20.3592 13.5296 20.4997 13 20.5H3C1.348 20.5 0 19.152 0 17.5V7.50004Z" fill="#4D2A7C"/>
</svg>
