<svg width="57" height="35" viewBox="0 0 57 35" fill="none" xmlns="http://www.w3.org/2000/svg">
<path d="M15.5558 34.607C17.5973 34.607 19.2522 32.9543 19.2522 30.9156C19.2522 28.8769 17.5973 27.2242 15.5558 27.2242C13.5143 27.2242 11.8594 28.8769 11.8594 30.9156C11.8594 32.9543 13.5143 34.607 15.5558 34.607Z" fill="#606060"/>
<path d="M7.31583 14.6118C11.3562 14.6118 14.6317 11.3409 14.6317 7.30592C14.6317 3.27097 11.3562 0 7.31583 0C3.27541 0 0 3.27097 0 7.30592C0 11.3409 3.27541 14.6118 7.31583 14.6118Z" fill="#606060"/>
<path d="M44.742 32.223C51.3343 32.223 56.6783 26.8861 56.6783 20.3028C56.6783 13.7194 51.3343 8.38257 44.742 8.38257C38.1497 8.38257 32.8057 13.7194 32.8057 20.3028C32.8057 26.8861 38.1497 32.223 44.742 32.223Z" fill="#606060"/>
</svg>
