<svg width="80" height="80" viewBox="0 0 80 80" fill="none" xmlns="http://www.w3.org/2000/svg">
<g clip-path="url(#clip0_138_1093)">
<path d="M65.7722 16.5625C65.7722 7.51703 58.4114 0 49.366 0C45.8411 0 42.5475 1.50828 39.991 4.22281C37.4342 1.50828 34.1407 0 30.616 0C21.5705 0 14.2097 7.51703 14.2097 16.5625C14.2097 25.6606 20.8861 30.3572 28.6178 35.7977C31.8061 38.0406 35.1044 40.3616 38.4552 43.2684L39.9886 44.6005L41.5244 43.2706C45.3124 39.993 48.915 37.4273 52.0919 35.1636C59.7342 29.7233 65.7722 25.4248 65.7722 16.5625ZM47.0222 23.5938H42.3347V28.2812H37.6472V23.5938H32.9597V18.9062H37.6472V14.2188H42.3347V18.9062H47.0222V23.5938Z" fill="#4D2A7C"/>
<path d="M77.1784 21.4373C72.397 21.4373 71.1628 43.656 71.0688 44.1249C70.5928 47.3805 68.2993 52.1999 64.4262 55.1018L54.2745 62.4726L51.4638 58.719L61.6156 51.3504C65.637 48.3354 67.4698 43.1873 62.4438 43.1873C57.9426 43.1873 49.5287 48.3987 47.0343 50.466C44.0557 52.9348 42.3345 56.6029 42.3345 60.4716V79.9999H56.397C56.397 77.7498 57.6157 75.2966 59.4906 72.9529C61.4595 70.3748 64.272 67.7498 67.1781 65.0779C72.7093 59.8748 78.4437 54.531 79.1938 49.0937C79.6392 45.4412 80.009 39.1768 79.9906 33.5937C79.9703 27.3413 79.4406 21.6393 77.1784 21.4373Z" fill="#4D2A7C"/>
<path d="M32.3971 50.0312C25.7876 45.4841 20.7723 43.1873 17.5379 43.1873C12.512 43.1873 14.3448 48.3354 18.3662 51.3504L28.5179 58.719L25.7073 62.4726L15.5556 55.1018C11.6821 52.1999 9.38868 47.3805 8.91259 44.1249C8.81868 43.656 7.58446 21.4373 2.80306 21.4373C0.178058 21.6716 -0.103193 29.3123 0.0375887 36.6248C0.131495 41.9685 0.553214 47.1716 0.787432 49.0937C1.53759 54.531 7.27196 59.8749 12.8032 65.0779C15.7095 67.7498 18.5218 70.3748 20.4907 72.9529C22.3656 75.2966 23.5843 77.7498 23.5843 79.9999H37.6468V60.5652C37.6471 56.4244 35.7032 52.524 32.3971 50.0312Z" fill="#4D2A7C"/>
</g>
<defs>
<clipPath id="clip0_138_1093">
<rect width="80" height="80" fill="white"/>
</clipPath>
</defs>
</svg>
