<svg width="80" height="80" viewBox="0 0 80 80" fill="none" xmlns="http://www.w3.org/2000/svg">
<g clip-path="url(#clip0_138_1046)">
<path d="M0.3125 77.5C0.312336 77.7873 0.368805 78.0718 0.478679 78.3373C0.588553 78.6028 0.749677 78.844 0.952838 79.0472C1.156 79.2503 1.39721 79.4114 1.66269 79.5213C1.92816 79.6312 2.21269 79.6877 2.5 79.6875H32.8125V29.6875H0.3125V77.5ZM6.875 36.25C6.875 35.6698 7.10547 35.1134 7.5157 34.7032C7.92594 34.293 8.48234 34.0625 9.0625 34.0625C9.64266 34.0625 10.1991 34.293 10.6093 34.7032C11.0195 35.1134 11.25 35.6698 11.25 36.25V51.25C11.25 51.8302 11.0195 52.3866 10.6093 52.7968C10.1991 53.207 9.64266 53.4375 9.0625 53.4375C8.48234 53.4375 7.92594 53.207 7.5157 52.7968C7.10547 52.3866 6.875 51.8302 6.875 51.25V36.25Z" fill="#4D2A7C"/>
<path d="M58.4375 68.75C63.4426 68.75 67.5 64.6926 67.5 59.6875C67.5 54.6824 63.4426 50.625 58.4375 50.625C53.4324 50.625 49.375 54.6824 49.375 59.6875C49.375 64.6926 53.4324 68.75 58.4375 68.75Z" fill="#4D2A7C"/>
<path d="M37.1875 79.6875H77.5C78.0801 79.6872 78.6363 79.4566 79.0464 79.0464C79.4566 78.6363 79.6872 78.0801 79.6875 77.5V39.6875H37.1875V79.6875ZM58.4375 46.25C61.0952 46.25 63.6932 47.0381 65.903 48.5146C68.1128 49.9912 69.8351 52.0898 70.8521 54.5452C71.8692 57.0006 72.1353 59.7024 71.6168 62.309C71.0983 64.9156 69.8185 67.31 67.9392 69.1892C66.06 71.0685 63.6656 72.3483 61.059 72.8668C58.4524 73.3853 55.7506 73.1192 53.2952 72.1021C50.8398 71.0851 48.7412 69.3628 47.2646 67.153C45.7881 64.9432 45 62.3452 45 59.6875C45.004 56.1249 46.421 52.7093 48.9401 50.1901C51.4593 47.671 54.8749 46.254 58.4375 46.25Z" fill="#4D2A7C"/>
<path d="M47.1875 17.8125V2.5C47.1877 2.21269 47.1312 1.92816 47.0213 1.66269C46.9114 1.39721 46.7503 1.156 46.5472 0.952838C46.344 0.749677 46.1028 0.588553 45.8373 0.478679C45.5718 0.368805 45.2873 0.312336 45 0.3125H2.5C2.21269 0.312336 1.92816 0.368805 1.66269 0.478679C1.39721 0.588553 1.156 0.749677 0.952838 0.952838C0.749677 1.156 0.588553 1.39721 0.478679 1.66269C0.368805 1.92816 0.312336 2.21269 0.3125 2.5V25.3125H32.8125V24.375C32.8145 22.6351 33.5065 20.9671 34.7368 19.7368C35.9671 18.5065 37.6351 17.8145 39.375 17.8125H47.1875ZM11.25 16.5625C11.25 17.1427 11.0195 17.6991 10.6093 18.1093C10.1991 18.5195 9.64266 18.75 9.0625 18.75C8.48234 18.75 7.92594 18.5195 7.5157 18.1093C7.10547 17.6991 6.875 17.1427 6.875 16.5625V9.0625C6.875 8.48234 7.10547 7.92594 7.5157 7.5157C7.92594 7.10547 8.48234 6.875 9.0625 6.875C9.64266 6.875 10.1991 7.10547 10.6093 7.5157C11.0195 7.92594 11.25 8.48234 11.25 9.0625V16.5625Z" fill="#4D2A7C"/>
<path d="M77.5 22.1875H39.375C38.7949 22.1878 38.2387 22.4184 37.8286 22.8286C37.4184 23.2387 37.1878 23.7949 37.1875 24.375V35.3125H79.6875V24.375C79.6872 23.7949 79.4566 23.2387 79.0464 22.8286C78.6363 22.4184 78.0801 22.1878 77.5 22.1875ZM45.9375 30.9375C45.5049 30.9375 45.0819 30.8092 44.7222 30.5688C44.3625 30.3285 44.0821 29.9868 43.9165 29.5871C43.7509 29.1874 43.7076 28.7476 43.792 28.3232C43.8764 27.8989 44.0848 27.5091 44.3907 27.2032C44.6966 26.8973 45.0864 26.6889 45.5107 26.6045C45.9351 26.5201 46.3749 26.5634 46.7746 26.729C47.1743 26.8946 47.516 27.175 47.7563 27.5347C47.9967 27.8944 48.125 28.3174 48.125 28.75C48.1247 29.3301 47.8941 29.8863 47.4839 30.2964C47.0738 30.7066 46.5176 30.9372 45.9375 30.9375ZM54.6875 30.9375C54.2549 30.9375 53.8319 30.8092 53.4722 30.5688C53.1125 30.3285 52.8321 29.9868 52.6665 29.5871C52.5009 29.1874 52.4576 28.7476 52.542 28.3232C52.6264 27.8989 52.8348 27.5091 53.1407 27.2032C53.4466 26.8973 53.8364 26.6889 54.2607 26.6045C54.6851 26.5201 55.1249 26.5634 55.5246 26.729C55.9243 26.8946 56.266 27.175 56.5063 27.5347C56.7467 27.8944 56.875 28.3174 56.875 28.75C56.8747 29.3301 56.6441 29.8863 56.2339 30.2964C55.8238 30.7066 55.2676 30.9372 54.6875 30.9375Z" fill="#4D2A7C"/>
</g>
<defs>
<clipPath id="clip0_138_1046">
<rect width="80" height="80" fill="white"/>
</clipPath>
</defs>
</svg>
