<svg width="24" height="24" viewBox="0 0 24 24" fill="none" xmlns="http://www.w3.org/2000/svg">
<path fill-rule="evenodd" clip-rule="evenodd" d="M7.78481 1.35626C7.42912 1.29352 7.06455 1.30146 6.71193 1.37963C6.35931 1.45779 6.02554 1.60466 5.72969 1.81183C5.43383 2.019 5.18168 2.28243 4.98765 2.58706C4.79361 2.89169 4.66148 3.23156 4.59881 3.58726L2.16881 17.3743C2.04207 18.0925 2.20581 18.8316 2.62401 19.4291C3.04221 20.0266 3.68062 20.4335 4.39881 20.5603L16.2168 22.6443C16.9349 22.7707 17.6737 22.6068 18.271 22.1887C18.8682 21.7705 19.275 21.1322 19.4018 20.4143L21.8338 6.62626C21.8965 6.27058 21.8886 5.90601 21.8104 5.55339C21.7323 5.20077 21.5854 4.867 21.3782 4.57115C21.1711 4.27529 20.9076 4.02314 20.603 3.8291C20.2984 3.63507 19.9585 3.50294 19.6028 3.44026L7.78481 1.35626ZM9.06081 5.64326C8.96294 5.62404 8.86223 5.62454 8.76456 5.64471C8.66688 5.66489 8.57422 5.70434 8.49198 5.76076C8.40974 5.81718 8.33958 5.88944 8.2856 5.97331C8.23163 6.05717 8.19492 6.15096 8.17763 6.24918C8.16034 6.3474 8.16281 6.44809 8.18491 6.54534C8.207 6.6426 8.24827 6.73447 8.3063 6.81559C8.36432 6.8967 8.43795 6.96543 8.52286 7.01774C8.60777 7.07006 8.70226 7.10491 8.80081 7.12026L16.6788 8.51026C16.8748 8.54474 17.0765 8.49995 17.2394 8.38574C17.4024 8.27153 17.5133 8.09726 17.5478 7.90126C17.5823 7.70527 17.5375 7.50361 17.4233 7.34064C17.3091 7.17767 17.1348 7.06674 16.9388 7.03226L9.06081 5.64326ZM7.49781 10.1913C7.53243 9.99541 7.64343 9.82133 7.8064 9.70731C7.96936 9.59329 8.17095 9.54867 8.36681 9.58326L16.2448 10.9723C16.3434 10.9876 16.4378 11.0225 16.5228 11.0748C16.6077 11.1271 16.6813 11.1958 16.7393 11.2769C16.7973 11.3581 16.8386 11.4499 16.8607 11.5472C16.8828 11.6444 16.8853 11.7451 16.868 11.8433C16.8507 11.9416 16.814 12.0354 16.76 12.1192C16.706 12.2031 16.6359 12.2753 16.5536 12.3318C16.4714 12.3882 16.3787 12.4276 16.2811 12.4478C16.1834 12.468 16.0827 12.4685 15.9848 12.4493L8.10581 11.0593C7.91016 11.0246 7.73625 10.9138 7.62225 10.751C7.50826 10.5883 7.4635 10.387 7.49781 10.1913ZM7.67181 13.5213C7.57394 13.502 7.47323 13.5025 7.37556 13.5227C7.27789 13.5429 7.18522 13.5823 7.10298 13.6388C7.02074 13.6952 6.95058 13.7674 6.8966 13.8513C6.84263 13.9352 6.80592 14.029 6.78863 14.1272C6.77134 14.2254 6.77381 14.3261 6.79591 14.4233C6.818 14.5206 6.85927 14.6125 6.9173 14.6936C6.97532 14.7747 7.04895 14.8434 7.13386 14.8957C7.21877 14.9481 7.31326 14.9829 7.41181 14.9983L12.3358 15.8673C12.5318 15.9017 12.7335 15.8569 12.8964 15.7427C13.0594 15.6285 13.1703 15.4543 13.2048 15.2583C13.2393 15.0623 13.1945 14.8606 13.0803 14.6976C12.9661 14.5347 12.7918 14.4237 12.5958 14.3893L7.67181 13.5213Z" fill="#606060"/>
</svg>
