<svg width="25" height="24" viewBox="0 0 25 24" fill="none" xmlns="http://www.w3.org/2000/svg">
<path fill-rule="evenodd" clip-rule="evenodd" d="M10.265 2.99795C10.5464 2.6837 10.8909 2.43231 11.276 2.26021C11.6611 2.0881 12.0782 1.99915 12.5 1.99915C12.9218 1.99915 13.3389 2.0881 13.724 2.26021C14.1092 2.43231 14.4536 2.6837 14.735 2.99795L15.435 3.77995C15.5351 3.89186 15.659 3.97981 15.7977 4.03728C15.9363 4.09476 16.0862 4.12028 16.236 4.11195L17.286 4.05395C17.7071 4.03083 18.1283 4.09673 18.5221 4.24735C18.916 4.39798 19.2737 4.62994 19.5719 4.92812C19.87 5.22629 20.102 5.58398 20.2526 5.97784C20.4032 6.37171 20.4691 6.7929 20.446 7.21395L20.388 8.26395C20.3799 8.41366 20.4054 8.56328 20.4629 8.70176C20.5204 8.84024 20.6083 8.96402 20.72 9.06395L21.503 9.76395C21.8174 10.0453 22.069 10.3899 22.2412 10.7751C22.4134 11.1603 22.5024 11.5775 22.5024 11.9995C22.5024 12.4214 22.4134 12.8386 22.2412 13.2238C22.069 13.609 21.8174 13.9536 21.503 14.235L20.72 14.935C20.6081 15.035 20.5202 15.1589 20.4627 15.2976C20.4052 15.4363 20.3797 15.5861 20.388 15.736L20.446 16.786C20.4691 17.207 20.4032 17.6282 20.2526 18.0221C20.102 18.4159 19.87 18.7736 19.5719 19.0718C19.2737 19.37 18.916 19.6019 18.5221 19.7526C18.1283 19.9032 17.7071 19.9691 17.286 19.946L16.236 19.888C16.0863 19.8798 15.9367 19.9054 15.7982 19.9628C15.6597 20.0203 15.536 20.1082 15.436 20.22L14.736 21.003C14.4546 21.3174 14.1101 21.5689 13.7249 21.7411C13.3397 21.9133 12.9225 22.0023 12.5005 22.0023C12.0786 22.0023 11.6614 21.9133 11.2762 21.7411C10.891 21.5689 10.5464 21.3174 10.265 21.003L9.56502 20.22C9.46499 20.108 9.34104 20.0201 9.20238 19.9626C9.06372 19.9051 8.91389 19.8796 8.76402 19.888L7.71402 19.946C7.29297 19.9691 6.87178 19.9032 6.47791 19.7526C6.08405 19.6019 5.72636 19.37 5.42819 19.0718C5.13001 18.7736 4.89805 18.4159 4.74742 18.0221C4.5968 17.6282 4.5309 17.207 4.55402 16.786L4.61202 15.736C4.62019 15.5862 4.5946 15.4366 4.53713 15.2981C4.47966 15.1597 4.39179 15.0359 4.28002 14.936L3.49802 14.236C3.1836 13.9546 2.93208 13.61 2.75987 13.2248C2.58767 12.8396 2.49866 12.4224 2.49866 12.0005C2.49866 11.5785 2.58767 11.1613 2.75987 10.7761C2.93208 10.3909 3.1836 10.0463 3.49802 9.76495L4.28002 9.06495C4.39193 8.96492 4.47988 8.84097 4.53735 8.70231C4.59483 8.56365 4.62035 8.41382 4.61202 8.26395L4.55402 7.21395C4.5309 6.7929 4.5968 6.37171 4.74742 5.97784C4.89805 5.58398 5.13001 5.22629 5.42819 4.92812C5.72636 4.62994 6.08405 4.39798 6.47791 4.24735C6.87178 4.09673 7.29297 4.03083 7.71402 4.05395L8.76402 4.11195C8.91373 4.12012 9.06335 4.09453 9.20183 4.03706C9.34031 3.97959 9.46409 3.89172 9.56402 3.77995L10.265 2.99795ZM16.207 8.29295C16.3945 8.48048 16.4998 8.73479 16.4998 8.99995C16.4998 9.26512 16.3945 9.51942 16.207 9.70695L10.207 15.707C10.0184 15.8891 9.76582 15.9899 9.50362 15.9876C9.24142 15.9853 8.99061 15.8802 8.8052 15.6948C8.6198 15.5094 8.51463 15.2585 8.51235 14.9964C8.51007 14.7342 8.61086 14.4816 8.79302 14.293L14.793 8.29295C14.9805 8.10548 15.2349 8.00017 15.5 8.00017C15.7652 8.00017 16.0195 8.10548 16.207 8.29295ZM10 7.99995C9.6022 7.99995 9.22067 8.15799 8.93936 8.43929C8.65806 8.7206 8.50002 9.10213 8.50002 9.49995V9.50995C8.50002 9.90778 8.65806 10.2893 8.93936 10.5706C9.22067 10.8519 9.6022 11.01 10 11.01H10.01C10.4078 11.01 10.7894 10.8519 11.0707 10.5706C11.352 10.2893 11.51 9.90778 11.51 9.50995V9.49995C11.51 9.10213 11.352 8.7206 11.0707 8.43929C10.7894 8.15799 10.4078 7.99995 10.01 7.99995H10ZM15 13C14.6022 13 14.2207 13.158 13.9394 13.4393C13.6581 13.7206 13.5 14.1021 13.5 14.5V14.51C13.5 14.9078 13.6581 15.2893 13.9394 15.5706C14.2207 15.8519 14.6022 16.01 15 16.01H15.01C15.4078 16.01 15.7894 15.8519 16.0707 15.5706C16.352 15.2893 16.51 14.9078 16.51 14.51V14.5C16.51 14.1021 16.352 13.7206 16.0707 13.4393C15.7894 13.158 15.4078 13 15.01 13H15Z" fill="black"/>
</svg>
