<svg width="80" height="80" viewBox="0 0 80 80" fill="none" xmlns="http://www.w3.org/2000/svg">
<g clip-path="url(#clip0_138_1081)">
<path d="M52.3438 64.2188H2.34375C1.04937 64.2188 0 65.2681 0 66.5625C0 70.4458 3.14797 73.5938 7.03125 73.5938H47.6562C51.5395 73.5938 54.6875 70.4458 54.6875 66.5625C54.6875 65.2681 53.6381 64.2188 52.3438 64.2188Z" fill="#4D2A7C"/>
<path d="M78.8483 10.4329C69.763 5.06402 60.5491 5.06402 51.4636 10.4329C50.3792 11.0737 49.9952 12.4571 50.5942 13.5653L57.7091 26.7262H72.603L79.7178 13.5653C80.3167 12.4571 79.9327 11.0737 78.8483 10.4329Z" fill="#4D2A7C"/>
<path d="M59.2965 31.4062H71.0153V38.4375H59.2965V31.4062Z" fill="#4D2A7C"/>
<path d="M59.2965 67.7344C59.2965 70.9705 61.9198 73.5938 65.1559 73.5938C68.392 73.5938 71.0153 70.9705 71.0153 67.7344V43.125H59.2965V67.7344Z" fill="#4D2A7C"/>
<path d="M40.0495 24.1692C36.6558 20.7753 32.1434 18.9062 27.3438 18.9062C22.5441 18.9062 18.0317 20.7753 14.638 24.1692C11.2441 27.563 9.375 32.0753 9.375 36.875C9.375 41.6747 11.2441 46.187 14.638 49.5808C18.0317 52.9747 22.5441 54.8438 27.3438 54.8438C32.1434 54.8438 36.6558 52.9747 40.0495 49.5808C43.4434 46.187 45.3125 41.6747 45.3125 36.875C45.3125 32.0753 43.4434 27.563 40.0495 24.1692ZM18.505 41.4284C17.9052 41.4284 17.3053 41.1997 16.8478 40.7419C15.9325 39.8266 15.9325 38.3427 16.8478 37.4273L27.8962 26.3789C28.8114 25.4636 30.2955 25.4636 31.2108 26.3789C32.1261 27.2942 32.1261 28.7781 31.2108 29.6934L20.1623 40.7419C19.7045 41.1997 19.1048 41.4284 18.505 41.4284ZM37.8398 36.3225L26.7914 47.3709C26.3337 47.8286 25.7339 48.0575 25.1342 48.0575C24.5345 48.0575 23.9345 47.8288 23.477 47.3709C22.5617 46.4556 22.5617 44.9717 23.477 44.0564L34.5255 33.008C35.4406 32.0927 36.9247 32.0927 37.84 33.008C38.7552 33.9233 38.7552 35.4072 37.8398 36.3225Z" fill="#4D2A7C"/>
<path d="M27.3438 9.53125C12.2664 9.53125 0 21.7977 0 36.875C0 46.2912 4.78453 54.6109 12.05 59.5312H27.3438C14.8311 59.5312 4.6875 49.3877 4.6875 36.875C4.6875 24.3623 14.8311 14.2188 27.3438 14.2188C39.8564 14.2188 50 24.3623 50 36.875C50 49.3877 39.8564 59.5312 27.3438 59.5312H42.6375C49.903 54.6109 54.6875 46.2912 54.6875 36.875C54.6875 21.7977 42.4211 9.53125 27.3438 9.53125Z" fill="#4D2A7C"/>
</g>
<defs>
<clipPath id="clip0_138_1081">
<rect width="80" height="80" fill="white"/>
</clipPath>
</defs>
</svg>
