<svg width="25" height="24" viewBox="0 0 25 24" fill="none" xmlns="http://www.w3.org/2000/svg">
<path d="M12.6307 17C12.9141 17 13.1517 16.904 13.3437 16.712C13.5357 16.52 13.6314 16.2827 13.6307 16C13.6301 15.7173 13.5341 15.48 13.3427 15.288C13.1514 15.096 12.9141 15 12.6307 15C12.3474 15 12.1101 15.096 11.9187 15.288C11.7274 15.48 11.6314 15.7173 11.6307 16C11.6301 16.2827 11.7261 16.5203 11.9187 16.713C12.1114 16.9057 12.3487 17.0013 12.6307 17ZM11.6307 13H13.6307V7H11.6307V13ZM12.6307 22C11.2474 22 9.94741 21.7373 8.73074 21.212C7.51407 20.6867 6.45574 19.9743 5.55574 19.075C4.65574 18.1757 3.94341 17.1173 3.41874 15.9C2.89407 14.6827 2.63141 13.3827 2.63074 12C2.63007 10.6173 2.89274 9.31733 3.41874 8.1C3.94474 6.88267 4.65707 5.82433 5.55574 4.925C6.45441 4.02567 7.51274 3.31333 8.73074 2.788C9.94874 2.26267 11.2487 2 12.6307 2C14.0127 2 15.3127 2.26267 16.5307 2.788C17.7487 3.31333 18.8071 4.02567 19.7057 4.925C20.6044 5.82433 21.3171 6.88267 21.8437 8.1C22.3704 9.31733 22.6327 10.6173 22.6307 12C22.6287 13.3827 22.3661 14.6827 21.8427 15.9C21.3194 17.1173 20.6071 18.1757 19.7057 19.075C18.8044 19.9743 17.7461 20.687 16.5307 21.213C15.3154 21.739 14.0154 22.0013 12.6307 22Z" fill="#FFCC00"/>
</svg>
