<svg width="24" height="25" viewBox="0 0 24 25" fill="none" xmlns="http://www.w3.org/2000/svg">
<path d="M4.99922 4.5H18.9992C19.2826 4.5 19.5202 4.596 19.7122 4.788C19.9042 4.98 19.9999 5.21733 19.9992 5.5C19.9986 5.78267 19.9026 6.02033 19.7112 6.213C19.5199 6.40567 19.2826 6.50133 18.9992 6.5H4.99922C4.71589 6.5 4.47855 6.404 4.28722 6.212C4.09589 6.02 3.99989 5.78267 3.99922 5.5C3.99855 5.21733 4.09455 4.98 4.28722 4.788C4.47989 4.596 4.71722 4.5 4.99922 4.5ZM4.99922 20.5C4.71589 20.5 4.47855 20.404 4.28722 20.212C4.09589 20.02 3.99989 19.7827 3.99922 19.5V14.5H3.82422C3.50755 14.5 3.24922 14.379 3.04922 14.137C2.84922 13.895 2.78255 13.616 2.84922 13.3L3.84922 8.3C3.89922 8.06667 4.01589 7.875 4.19922 7.725C4.38255 7.575 4.59089 7.5 4.82422 7.5H19.1742C19.4076 7.5 19.6159 7.575 19.7992 7.725C19.9825 7.875 20.0992 8.06667 20.1492 8.3L21.1492 13.3C21.2159 13.6167 21.1492 13.8957 20.9492 14.137C20.7492 14.3783 20.4909 14.4993 20.1742 14.5H19.9992V19.5C19.9992 19.7833 19.9032 20.021 19.7112 20.213C19.5192 20.405 19.2819 20.5007 18.9992 20.5C18.7166 20.4993 18.4792 20.4033 18.2872 20.212C18.0952 20.0207 17.9992 19.7833 17.9992 19.5V14.5H13.9992V19.5C13.9992 19.7833 13.9032 20.021 13.7112 20.213C13.5192 20.405 13.2819 20.5007 12.9992 20.5H4.99922ZM5.99922 18.5H11.9992V14.5H5.99922V18.5Z" fill="#4D2A7C"/>
</svg>
