<svg width="25" height="24" viewBox="0 0 25 24" fill="none" xmlns="http://www.w3.org/2000/svg">
<path d="M4.77886 9.175C4.22886 9.469 3.88086 10.04 3.88086 10.668V20.053C3.88086 21.003 4.66086 21.75 5.59486 21.75H18.1159C18.6949 21.75 19.1399 21.346 19.4199 21.025C19.7369 20.663 20.0379 20.178 20.3139 19.642C20.8709 18.562 21.3939 17.148 21.7729 15.749C22.1489 14.357 22.4009 12.917 22.3799 11.793C22.3699 11.241 22.2929 10.683 22.0679 10.237C21.8209 9.744 21.3649 9.355 20.7039 9.355H15.4539C15.6699 8.395 15.9639 6.858 15.8579 5.487C15.7989 4.729 15.6119 3.926 15.1349 3.298C14.6259 2.63 13.8579 2.25 12.8529 2.25C12.2709 2.25 11.7269 2.56 11.4379 3.072M11.4379 3.072L10.1579 5.338C9.64586 6.244 8.85786 6.918 7.89986 7.514C7.26186 7.911 6.60586 8.241 5.92686 8.584C5.54166 8.77605 5.15897 8.97307 4.77886 9.175" fill="#BFBFBF"/>
</svg>
