<svg width="16" height="17" viewBox="0 0 16 17" fill="none" xmlns="http://www.w3.org/2000/svg">
<path d="M14.5306 5.5313L6.5306 13.5313C6.46092 13.6012 6.37813 13.6567 6.28696 13.6946C6.1958 13.7324 6.09806 13.7519 5.99935 13.7519C5.90064 13.7519 5.8029 13.7324 5.71173 13.6946C5.62057 13.6567 5.53778 13.6012 5.4681 13.5313L1.9681 10.0313C1.89833 9.96154 1.84299 9.87871 1.80524 9.78756C1.76748 9.69641 1.74805 9.59871 1.74805 9.50005C1.74805 9.40139 1.76748 9.30369 1.80524 9.21254C1.84299 9.12139 1.89833 9.03857 1.9681 8.9688C2.03786 8.89904 2.12069 8.8437 2.21184 8.80594C2.30299 8.76818 2.40069 8.74875 2.49935 8.74875C2.59801 8.74875 2.69571 8.76818 2.78686 8.80594C2.87801 8.8437 2.96083 8.89904 3.0306 8.9688L5.99997 11.9382L13.4693 4.47005C13.6102 4.32915 13.8013 4.25 14.0006 4.25C14.1999 4.25 14.391 4.32915 14.5318 4.47005C14.6727 4.61095 14.7519 4.80204 14.7519 5.0013C14.7519 5.20056 14.6727 5.39165 14.5318 5.53255L14.5306 5.5313Z" fill="#3F4040"/>
</svg>
