<svg width="33" height="33" viewBox="0 0 33 33" fill="none" xmlns="http://www.w3.org/2000/svg">
<path d="M5 7.66C5 6.19067 6.19067 5 7.66 5H26.34C27.8093 5 29 6.19067 29 7.66V26.34C29 27.0455 28.7198 27.7221 28.2209 28.2209C27.7221 28.7198 27.0455 29 26.34 29H7.66C6.95452 29 6.27794 28.7198 5.7791 28.2209C5.28025 27.7221 5 27.0455 5 26.34V7.66ZM9.476 25H24.796C23.937 23.7644 22.7916 22.7551 21.4576 22.0586C20.1237 21.362 18.6409 20.9988 17.136 21C15.6311 20.9988 14.1483 21.362 12.8144 22.0586C11.4804 22.7551 10.335 23.7644 9.476 25ZM17 18.3333C17.6128 18.3333 18.2197 18.2126 18.7859 17.9781C19.352 17.7436 19.8665 17.3998 20.2998 16.9665C20.7332 16.5332 21.0769 16.0187 21.3114 15.4525C21.546 14.8863 21.6667 14.2795 21.6667 13.6667C21.6667 13.0538 21.546 12.447 21.3114 11.8808C21.0769 11.3146 20.7332 10.8002 20.2998 10.3668C19.8665 9.9335 19.352 9.58975 18.7859 9.35523C18.2197 9.12071 17.6128 9 17 9C15.7623 9 14.5753 9.49167 13.7002 10.3668C12.825 11.242 12.3333 12.429 12.3333 13.6667C12.3333 14.9043 12.825 16.0913 13.7002 16.9665C14.5753 17.8417 15.7623 18.3333 17 18.3333Z" fill="#B0B1B1"/>
</svg>
