<svg width="74" height="76" viewBox="0 0 74 76" fill="none" xmlns="http://www.w3.org/2000/svg">
<path d="M73.2495 39.5C73.2448 49.1127 69.4242 58.3303 62.627 65.1275C55.8298 71.9247 46.6122 75.7454 36.9995 75.75C30.1369 75.7527 23.4147 73.8066 17.615 70.1381C11.8152 66.4696 7.17652 61.2296 4.23856 55.0277C1.3006 48.8259 0.184215 41.9172 1.0193 35.1057C1.85439 28.2941 4.60662 21.8597 8.95573 16.5512C12.3452 12.3864 16.6219 9.03087 21.4736 6.72968C26.3253 4.42849 31.6297 3.23967 36.9995 3.25C38.5042 3.2564 40.007 3.35576 41.4995 3.5475C40.414 4.99024 39.5771 6.6041 39.0232 8.3225C38.3482 8.28 37.6757 8.25 36.9995 8.25C32.6119 8.24265 28.2725 9.16436 24.2667 10.9545C20.2609 12.7446 16.6796 15.3626 13.7582 18.6362C17.0945 21.0662 23.9095 27.0325 21.9145 34.0175C21.6351 34.8295 21.5266 35.6905 21.5959 36.5464C21.6652 37.4024 21.9107 38.2347 22.317 38.9912C23.982 41.8887 27.952 42.9275 27.992 42.9375C28.302 43.0375 33.4745 44.8125 34.6095 48.9212C35.2732 51.3237 34.4357 53.9075 32.1232 56.6025C29.8978 59.336 26.9542 61.3948 23.6232 62.5475C21.7182 63.2887 20.6382 63.715 20.0095 65.715C26.59 69.9915 34.5402 71.6315 42.2759 70.3083C50.0115 68.985 56.9646 64.7956 61.7495 58.575C61.8995 58.38 62.0282 58.175 62.1732 57.9775C61.287 52.8525 59.6857 52.2275 57.8632 51.5275C56.6979 51.1574 55.6302 50.5313 54.7382 49.695C53.6778 48.5283 52.7586 47.2406 51.9995 45.8588C50.3057 43.0663 48.3857 39.8988 43.9995 37.705L43.0857 37.25C36.6157 34.0413 32.7107 32.1038 36.3982 21.0675C36.9065 19.5201 37.6903 18.0773 38.712 16.8088C39.8182 21.5025 42.932 27.52 48.027 34.7763C48.7571 35.8138 49.726 36.6606 50.8521 37.2451C51.9781 37.8297 53.2283 38.1348 54.497 38.1348C55.7657 38.1348 57.0158 37.8297 58.1419 37.2451C59.2679 36.6606 60.2369 35.8138 60.967 34.7763C63.9334 30.6958 66.4876 26.3311 68.592 21.7463C71.6449 27.1654 73.249 33.2801 73.2495 39.5ZM51.0982 32.625C47.397 27.3512 41.9995 18.7262 41.9995 13.25C41.9995 9.93479 43.3164 6.75537 45.6606 4.41117C48.0048 2.06696 51.1843 0.75 54.4995 0.75C57.8147 0.75 60.9941 2.06696 63.3383 4.41117C65.6825 6.75537 66.9995 9.93479 66.9995 13.25C66.9995 18.7262 61.602 27.3512 57.9007 32.625C57.5168 33.1702 57.0073 33.6152 56.4154 33.9223C55.8235 34.2295 55.1664 34.3898 54.4995 34.3898C53.8326 34.3898 53.1755 34.2295 52.5836 33.9223C51.9916 33.6152 51.4822 33.1702 51.0982 32.625ZM54.4995 19.5C55.7356 19.5 56.944 19.1334 57.9718 18.4467C58.9996 17.7599 59.8007 16.7838 60.2737 15.6418C60.7468 14.4997 60.8705 13.2431 60.6294 12.0307C60.3882 10.8183 59.793 9.70466 58.9189 8.83058C58.0448 7.9565 56.9312 7.36125 55.7188 7.12009C54.5064 6.87893 53.2497 7.0027 52.1077 7.47575C50.9657 7.9488 49.9896 8.74988 49.3028 9.77769C48.616 10.8055 48.2495 12.0139 48.2495 13.25C48.2495 14.9076 48.908 16.4973 50.0801 17.6694C51.2522 18.8415 52.8419 19.5 54.4995 19.5Z" fill="#4D2A7C"/>
</svg>
