<svg width="80" height="80" viewBox="0 0 80 80" fill="none" xmlns="http://www.w3.org/2000/svg">
<path d="M76.25 42.5C76.2453 52.1127 72.4247 61.3303 65.6275 68.1275C58.8303 74.9247 49.6126 78.7454 40 78.75C33.1374 78.7527 26.4152 76.8066 20.6154 73.1381C14.8157 69.4696 10.177 64.2296 7.23905 58.0277C4.30109 51.8259 3.1847 44.9172 4.01979 38.1057C4.85488 31.2941 7.60711 24.8597 11.9562 19.5512C15.3457 15.3864 19.6224 12.0309 24.4741 9.72968C29.3258 7.42849 34.6302 6.23967 40 6.25C41.5047 6.2564 43.0075 6.35576 44.5 6.5475C43.4145 7.99024 42.5776 9.6041 42.0237 11.3225C41.3487 11.28 40.6762 11.25 40 11.25C35.6124 11.2426 31.273 12.1644 27.2672 13.9545C23.2614 15.7446 19.6801 18.3626 16.7587 21.6362C20.095 24.0662 26.91 30.0325 24.915 37.0175C24.6356 37.8295 24.5271 38.6905 24.5964 39.5464C24.6656 40.4024 24.9111 41.2347 25.3175 41.9912C26.9825 44.8887 30.9525 45.9275 30.9925 45.9375C31.3025 46.0375 36.475 47.8125 37.61 51.9212C38.2737 54.3237 37.4362 56.9075 35.1237 59.6025C32.8983 62.336 29.9547 64.3948 26.6237 65.5475C24.7187 66.2887 23.6387 66.715 23.01 68.715C29.5905 72.9915 37.5407 74.6315 45.2764 73.3083C53.012 71.985 59.9651 67.7956 64.75 61.575C64.9 61.38 65.0287 61.175 65.1737 60.9775C64.2875 55.8525 62.6862 55.2275 60.8637 54.5275C59.6984 54.1574 58.6306 53.5313 57.7387 52.695C56.6783 51.5283 55.759 50.2406 55 48.8588C53.3062 46.0663 51.3862 42.8988 47 40.705L46.0862 40.25C39.6162 37.0413 35.7112 35.1038 39.3987 24.0675C39.9069 22.5201 40.6908 21.0773 41.7125 19.8088C42.8187 24.5025 45.9325 30.52 51.0275 37.7763C51.7576 38.8138 52.7265 39.6606 53.8526 40.2451C54.9786 40.8297 56.2287 41.1348 57.4975 41.1348C58.7662 41.1348 60.0163 40.8297 61.1424 40.2451C62.2684 39.6606 63.2374 38.8138 63.9675 37.7763C66.9339 33.6958 69.488 29.3311 71.5925 24.7463C74.6454 30.1654 76.2495 36.2801 76.25 42.5ZM54.0987 35.625C50.3975 30.3512 45 21.7262 45 16.25C45 12.9348 46.3169 9.75537 48.6611 7.41117C51.0053 5.06696 54.1848 3.75 57.5 3.75C60.8152 3.75 63.9946 5.06696 66.3388 7.41117C68.683 9.75537 70 12.9348 70 16.25C70 21.7262 64.6025 30.3512 60.9012 35.625C60.5173 36.1702 60.0078 36.6152 59.4159 36.9223C58.8239 37.2295 58.1668 37.3898 57.5 37.3898C56.8331 37.3898 56.176 37.2295 55.5841 36.9223C54.9921 36.6152 54.4827 36.1702 54.0987 35.625ZM57.5 22.5C58.7361 22.5 59.9445 22.1334 60.9723 21.4467C62.0001 20.7599 62.8012 19.7838 63.2742 18.6418C63.7473 17.4997 63.871 16.2431 63.6299 15.0307C63.3887 13.8183 62.7935 12.7047 61.9194 11.8306C61.0453 10.9565 59.9317 10.3612 58.7193 10.1201C57.5069 9.87893 56.2502 10.0027 55.1082 10.4758C53.9662 10.9488 52.99 11.7499 52.3033 12.7777C51.6165 13.8055 51.25 15.0139 51.25 16.25C51.25 17.9076 51.9084 19.4973 53.0806 20.6694C54.2527 21.8415 55.8424 22.5 57.5 22.5Z" fill="white"/>
</svg>
